<mxfile host="app.diagrams.net" modified="2023-07-11T14:24:25.820Z" agent="Mozilla/5.0 (Windows NT 10.0; Win64; x64) AppleWebKit/537.36 (KHTML, like Gecko) Chrome/114.0.0.0 Safari/537.36" etag="qNdyoaJ97gfdjiKVa1uu" version="21.5.2" type="device">
  <diagram name="Page-1" id="dkXvwBjq5upXiVAn6bBX">
    <mxGraphModel dx="2183" dy="1175" grid="1" gridSize="10" guides="1" tooltips="1" connect="1" arrows="1" fold="1" page="1" pageScale="1" pageWidth="827" pageHeight="1169" math="0" shadow="0">
      <root>
        <mxCell id="0" />
        <mxCell id="1" parent="0" />
        <UserObject label="" tags="Flowchart" id="Hd_F8_P-idC4PMliCgXe-1">
          <mxCell style="vsdxID=1;fillColor=none;gradientColor=none;strokeColor=none;spacingTop=-1;spacingBottom=-1;spacingLeft=-1;spacingRight=-1;points=[[0.5,0.5,0],[0.5,0,0],[0.5,0.5,0],[0.5,0.5,0],[1,0.5,0]];labelBackgroundColor=none;rounded=0;html=1;whiteSpace=wrap;" vertex="1" parent="1">
            <mxGeometry x="447" y="101" width="47" height="47" as="geometry" />
          </mxCell>
        </UserObject>
        <mxCell id="Hd_F8_P-idC4PMliCgXe-2" style="vsdxID=2;fillColor=#7b7b7b;gradientColor=none;shape=stencil(vVHLDsIgEPwajiQI6RfU+h8bu22JCGRB2/69kG1iazx58DazM/vIjjBtmiCi0CplCjecbZ8nYc5Ca+snJJsLEqYTph0C4Ujh4XvmEaqzont41gkL96naodXKrGF6YSfQtUi0OXXDVlqPfJNP6usotUhYbJIUMmQb/GGrAxpRljVycDBuc1hKM2LclX8/7H9nFfB+82Cd45T2+mcspcSRmu4F);strokeColor=#939393;spacingTop=-1;spacingBottom=-1;spacingLeft=-1;spacingRight=-1;points=[[0.5,0.5,0],[0.5,0,0],[0,0.5,0],[0.5,1,0],[1,0.5,0]];labelBackgroundColor=none;rounded=0;html=1;whiteSpace=wrap;" vertex="1" parent="Hd_F8_P-idC4PMliCgXe-1">
          <mxGeometry width="47" height="47" as="geometry" />
        </mxCell>
        <mxCell id="Hd_F8_P-idC4PMliCgXe-3" value="&lt;div style=&quot;font-size: 1px&quot;&gt;&lt;font style=&quot;font-size:11.29px;font-family:Calibri;color:#4672c4;direction:ltr;letter-spacing:0px;line-height:120%;opacity:1&quot;&gt;New survey&lt;br/&gt;&lt;/font&gt;&lt;/div&gt;" style="text;vsdxID=1;fillColor=none;gradientColor=none;strokeColor=none;spacingTop=-1;spacingBottom=-1;spacingLeft=-1;spacingRight=-1;points=[[0.5,0.5,0],[0.5,0,0],[0.5,0.5,0],[0.5,0.5,0],[1,0.5,0]];labelBackgroundColor=none;rounded=0;html=1;whiteSpace=wrap;verticalAlign=top;align=center;overflow=width;;html=1;" vertex="1" parent="Hd_F8_P-idC4PMliCgXe-1">
          <mxGeometry x="-6.72" y="-18.72" width="61.83" height="19.2" as="geometry" />
        </mxCell>
        <UserObject label="" tags="Flowchart" id="Hd_F8_P-idC4PMliCgXe-4">
          <mxCell style="vsdxID=52;fillColor=none;gradientColor=none;strokeColor=none;spacingTop=-1;spacingBottom=-1;spacingLeft=-1;spacingRight=-1;points=[[0.5,0,0],[1,0.5,0],[0.5,1,0],[0,0.5,0]];labelBackgroundColor=none;rounded=0;html=1;whiteSpace=wrap;" vertex="1" parent="1">
            <mxGeometry x="403" y="339" width="136" height="81" as="geometry" />
          </mxCell>
        </UserObject>
        <mxCell id="Hd_F8_P-idC4PMliCgXe-5" style="vsdxID=53;fillColor=#4672c4;gradientColor=none;shape=stencil(nZBNDoUgDIRP0z3SeAKf3sNElEYEg/h3+wdpjIaFC3cz9OukDGC16HZWIMUSvBvVTl3QgD+QkqxWnkJUgDVg1TuvBu9W27Gf20QmNbktJRy8V4q0IsXJthDsG2YN2Qd7DS+4fGGz3Bfyc2Z2axT3J3syhjt6zvNS4hMXivUf);strokeColor=#939393;points=[[0.5,0,0],[1,0.5,0],[0.5,1,0],[0,0.5,0]];labelBackgroundColor=none;rounded=0;html=1;whiteSpace=wrap;" vertex="1" parent="Hd_F8_P-idC4PMliCgXe-4">
          <mxGeometry width="136" height="81" as="geometry" />
        </mxCell>
        <mxCell id="Hd_F8_P-idC4PMliCgXe-6" value="&lt;div style=&quot;font-size: 1px&quot;&gt;&lt;font style=&quot;font-size:11.29px;font-family:Calibri;color:#feffff;direction:ltr;letter-spacing:0px;line-height:120%;opacity:1&quot;&gt;Does the survey require new &lt;/font&gt;&lt;font style=&quot;font-size:11.29px;font-family:Calibri;color:#feffff;direction:ltr;letter-spacing:0px;line-height:120%;opacity:1&quot;&gt;&lt;b&gt;persons&lt;/b&gt;&lt;/font&gt;&lt;font style=&quot;font-size:11.29px;font-family:Calibri;color:#feffff;direction:ltr;letter-spacing:0px;line-height:120%;opacity:1&quot;&gt;?&lt;br/&gt;&lt;/font&gt;&lt;/div&gt;" style="text;vsdxID=52;fillColor=none;gradientColor=none;strokeColor=none;spacingTop=-1;spacingBottom=-1;spacingLeft=-1;spacingRight=-1;points=[[0.5,0,0],[1,0.5,0],[0.5,1,0],[0,0.5,0]];labelBackgroundColor=none;rounded=0;html=1;whiteSpace=wrap;verticalAlign=middle;align=center;overflow=width;;html=1;" vertex="1" parent="Hd_F8_P-idC4PMliCgXe-4">
          <mxGeometry x="26.02" y="11.86" width="84.66" height="57.15" as="geometry" />
        </mxCell>
        <UserObject label="" tags="Flowchart" id="Hd_F8_P-idC4PMliCgXe-7">
          <mxCell style="vsdxID=67;fillColor=none;gradientColor=none;strokeColor=none;spacingTop=-1;spacingBottom=-1;spacingLeft=-1;spacingRight=-1;points=[[0.5,0,0],[1,0.5,0],[0.5,1,0],[0,0.5,0]];labelBackgroundColor=none;rounded=0;html=1;whiteSpace=wrap;glass=0;" vertex="1" parent="1">
            <mxGeometry x="403" y="203" width="136" height="81" as="geometry" />
          </mxCell>
        </UserObject>
        <mxCell id="Hd_F8_P-idC4PMliCgXe-8" style="vsdxID=68;fillColor=#4672c4;gradientColor=none;shape=stencil(nZBNDoUgDIRP0z3SeAKf3sNElEYEg/h3+wdpjIaFC3cz9OukDGC16HZWIMUSvBvVTl3QgD+QkqxWnkJUgDVg1TuvBu9W27Gf20QmNbktJRy8V4q0IsXJthDsG2YN2Qd7DS+4fGGz3Bfyc2Z2axT3J3syhjt6zvNS4hMXivUf);strokeColor=#939393;points=[[0.5,0,0],[1,0.5,0],[0.5,1,0],[0,0.5,0]];labelBackgroundColor=none;rounded=0;html=1;whiteSpace=wrap;" vertex="1" parent="Hd_F8_P-idC4PMliCgXe-7">
          <mxGeometry width="136" height="81" as="geometry" />
        </mxCell>
        <mxCell id="Hd_F8_P-idC4PMliCgXe-9" value="&lt;div style=&quot;font-size: 1px&quot;&gt;&lt;font style=&quot;font-size:11.29px;font-family:Calibri;color:#feffff;direction:ltr;letter-spacing:0px;line-height:120%;opacity:1&quot;&gt;Does the survey require new &lt;/font&gt;&lt;font style=&quot;font-size:11.29px;font-family:Calibri;color:#feffff;direction:ltr;letter-spacing:0px;line-height:120%;opacity:1&quot;&gt;&lt;b&gt;organisations&lt;/b&gt;&lt;/font&gt;&lt;font style=&quot;font-size:11.29px;font-family:Calibri;color:#feffff;direction:ltr;letter-spacing:0px;line-height:120%;opacity:1&quot;&gt;?&lt;br/&gt;&lt;/font&gt;&lt;/div&gt;" style="text;vsdxID=67;fillColor=none;gradientColor=none;strokeColor=none;spacingTop=-1;spacingBottom=-1;spacingLeft=-1;spacingRight=-1;points=[[0.5,0,0],[1,0.5,0],[0.5,1,0],[0,0.5,0]];labelBackgroundColor=none;rounded=0;html=1;whiteSpace=wrap;verticalAlign=middle;align=center;overflow=width;;html=1;" vertex="1" parent="Hd_F8_P-idC4PMliCgXe-7">
          <mxGeometry x="26.02" y="11.86" width="84.66" height="57.15" as="geometry" />
        </mxCell>
        <UserObject label="" tags="Flowchart" id="Hd_F8_P-idC4PMliCgXe-10">
          <mxCell style="vsdxID=82;fillColor=none;gradientColor=none;strokeColor=none;spacingTop=-1;spacingBottom=-1;spacingLeft=-1;spacingRight=-1;points=[[0.5,0,0],[1,0.5,0],[0.5,1,0],[0,0.5,0]];labelBackgroundColor=none;rounded=0;html=1;whiteSpace=wrap;" vertex="1" parent="1">
            <mxGeometry x="403" y="475" width="136" height="81" as="geometry" />
          </mxCell>
        </UserObject>
        <mxCell id="Hd_F8_P-idC4PMliCgXe-11" style="vsdxID=83;fillColor=#4672c4;gradientColor=none;shape=stencil(nZBNDoUgDIRP0z3SeAKf3sNElEYEg/h3+wdpjIaFC3cz9OukDGC16HZWIMUSvBvVTl3QgD+QkqxWnkJUgDVg1TuvBu9W27Gf20QmNbktJRy8V4q0IsXJthDsG2YN2Qd7DS+4fGGz3Bfyc2Z2axT3J3syhjt6zvNS4hMXivUf);strokeColor=#939393;points=[[0.5,0,0],[1,0.5,0],[0.5,1,0],[0,0.5,0]];labelBackgroundColor=none;rounded=0;html=1;whiteSpace=wrap;" vertex="1" parent="Hd_F8_P-idC4PMliCgXe-10">
          <mxGeometry width="136" height="81" as="geometry" />
        </mxCell>
        <mxCell id="Hd_F8_P-idC4PMliCgXe-12" value="&lt;div style=&quot;font-size: 1px&quot;&gt;&lt;font style=&quot;font-size:11.29px;font-family:Calibri;color:#feffff;direction:ltr;letter-spacing:0px;line-height:120%;opacity:1&quot;&gt;Does the survey require new &lt;/font&gt;&lt;font style=&quot;font-size:11.29px;font-family:Calibri;color:#feffff;direction:ltr;letter-spacing:0px;line-height:120%;opacity:1&quot;&gt;&lt;b&gt;locations&lt;/b&gt;&lt;/font&gt;&lt;font style=&quot;font-size:11.29px;font-family:Calibri;color:#feffff;direction:ltr;letter-spacing:0px;line-height:120%;opacity:1&quot;&gt;?&lt;br/&gt;&lt;/font&gt;&lt;/div&gt;" style="text;vsdxID=82;fillColor=none;gradientColor=none;strokeColor=none;spacingTop=-1;spacingBottom=-1;spacingLeft=-1;spacingRight=-1;points=[[0.5,0,0],[1,0.5,0],[0.5,1,0],[0,0.5,0]];labelBackgroundColor=none;rounded=0;html=1;whiteSpace=wrap;verticalAlign=middle;align=center;overflow=width;;html=1;" vertex="1" parent="Hd_F8_P-idC4PMliCgXe-10">
          <mxGeometry x="26.02" y="11.86" width="84.66" height="57.15" as="geometry" />
        </mxCell>
        <UserObject label="" tags="Flowchart" id="Hd_F8_P-idC4PMliCgXe-13">
          <mxCell style="vsdxID=97;fillColor=none;gradientColor=none;strokeColor=none;spacingTop=-1;spacingBottom=-1;spacingLeft=-1;spacingRight=-1;points=[[0.5,0,0],[1,0.5,0],[0.5,1,0],[0,0.5,0]];labelBackgroundColor=none;rounded=0;html=1;whiteSpace=wrap;" vertex="1" parent="1">
            <mxGeometry x="378" y="611" width="185" height="105" as="geometry" />
          </mxCell>
        </UserObject>
        <mxCell id="Hd_F8_P-idC4PMliCgXe-14" style="vsdxID=98;fillColor=#4672c4;gradientColor=none;shape=stencil(nZBNDoUgDIRP0z3SeAKf3sNElEYEg/h3+wdpjIaFC3cz9OukDGC16HZWIMUSvBvVTl3QgD+QkqxWnkJUgDVg1TuvBu9W27Gf20QmNbktJRy8V4q0IsXJthDsG2YN2Qd7DS+4fGGz3Bfyc2Z2axT3J3syhjt6zvNS4hMXivUf);strokeColor=#939393;points=[[0.5,0,0],[1,0.5,0],[0.5,1,0],[0,0.5,0]];labelBackgroundColor=none;rounded=0;html=1;whiteSpace=wrap;" vertex="1" parent="Hd_F8_P-idC4PMliCgXe-13">
          <mxGeometry width="185" height="105" as="geometry" />
        </mxCell>
        <mxCell id="Hd_F8_P-idC4PMliCgXe-15" value="&lt;div style=&quot;font-size: 1px&quot;&gt;&lt;font style=&quot;font-size:11.29px;font-family:Calibri;color:#feffff;direction:ltr;letter-spacing:0px;line-height:120%;opacity:1&quot;&gt;Was the survey part of an ongoing project, programme or other series?&lt;br/&gt;&lt;/font&gt;&lt;/div&gt;" style="text;vsdxID=97;fillColor=none;gradientColor=none;strokeColor=none;spacingTop=-1;spacingBottom=-1;spacingLeft=-1;spacingRight=-1;points=[[0.5,0,0],[1,0.5,0],[0.5,1,0],[0,0.5,0]];labelBackgroundColor=none;rounded=0;html=1;whiteSpace=wrap;verticalAlign=middle;align=center;overflow=width;;html=1;" vertex="1" parent="Hd_F8_P-idC4PMliCgXe-13">
          <mxGeometry x="50.55" y="23.92" width="84.66" height="57.15" as="geometry" />
        </mxCell>
        <UserObject label="" tags="Flowchart" id="Hd_F8_P-idC4PMliCgXe-16">
          <mxCell style="vsdxID=112;fillColor=none;gradientColor=none;strokeColor=none;spacingTop=-1;spacingBottom=-1;spacingLeft=-1;spacingRight=-1;points=[[0,0.75,0],[0,0.5,0],[0,0.25,0],[0.25,0,0],[0.5,0,0],[0.75,0,0],[1,0.25,0],[1,0.5,0],[1,0.75,0],[0.75,1,0],[0.5,1,0],[0.25,1,0]];labelBackgroundColor=none;rounded=1;html=1;whiteSpace=wrap;" vertex="1" parent="1">
            <mxGeometry x="594" y="342" width="101" height="76" as="geometry" />
          </mxCell>
        </UserObject>
        <mxCell id="Hd_F8_P-idC4PMliCgXe-17" style="vsdxID=113;fillColor=#4672c4;gradientColor=none;shape=stencil(nZCxDsIwDES/xitKk6V7KT/AF0TUEIuQVGmgwNeT9kCqOjB0s++efdKRaQZneyathpzilUfpsiOzJ60lOE6Sy0SmJdOcY+JLivfQYe9tIbWaFe5wU020VjadjvJmaPWu0jV0HN7iYwp8wlawXt8HCvsBqJewQH/mJvgPuhFcxZdhrgRlifdodOmvKywS6jftBw==);strokeColor=#939393;spacingTop=-1;spacingBottom=-1;spacingLeft=-1;spacingRight=-1;points=[[0,0.75,0],[0,0.5,0],[0,0.25,0],[0.25,0,0],[0.5,0,0],[0.75,0,0],[1,0.25,0],[1,0.5,0],[1,0.75,0],[0.75,1,0],[0.5,1,0],[0.25,1,0]];labelBackgroundColor=none;rounded=1;html=1;whiteSpace=wrap;" vertex="1" parent="Hd_F8_P-idC4PMliCgXe-16">
          <mxGeometry width="101" height="76" as="geometry" />
        </mxCell>
        <mxCell id="Hd_F8_P-idC4PMliCgXe-18" value="&lt;div style=&quot;font-size: 1px&quot;&gt;&lt;/div&gt;" style="verticalAlign=middle;align=center;overflow=width;vsdxID=125;fillColor=none;gradientColor=none;strokeColor=none;spacingTop=-1;spacingBottom=-1;spacingLeft=-1;spacingRight=-1;points=[[0,0.75,0],[0,0.5,0],[0,0.25,0],[0.25,0,0],[0.5,0,0],[0.75,0,0],[1,0.25,0],[1,0.5,0],[1,0.75,0],[0.75,1,0],[0.5,1,0],[0.25,1,0]];labelBackgroundColor=none;rounded=0;html=1;whiteSpace=wrap;" vertex="1" parent="Hd_F8_P-idC4PMliCgXe-16">
          <mxGeometry x="5" y="5" width="14" height="14" as="geometry" />
        </mxCell>
        <mxCell id="Hd_F8_P-idC4PMliCgXe-19" value="&lt;div style=&quot;font-size: 1px&quot;&gt;&lt;font style=&quot;font-size:11.29px;font-family:Calibri;color:#feffff;direction:ltr;letter-spacing:0px;line-height:120%;opacity:1&quot;&gt;Create Person record(s) in Reference Data&lt;br/&gt;&lt;/font&gt;&lt;/div&gt;" style="text;vsdxID=112;fillColor=none;gradientColor=none;strokeColor=none;spacingTop=-1;spacingBottom=-1;spacingLeft=-1;spacingRight=-1;points=[[0,0.75,0],[0,0.5,0],[0,0.25,0],[0.25,0,0],[0.5,0,0],[0.75,0,0],[1,0.25,0],[1,0.5,0],[1,0.75,0],[0.75,1,0],[0.5,1,0],[0.25,1,0]];labelBackgroundColor=none;rounded=1;html=1;whiteSpace=wrap;verticalAlign=middle;align=center;overflow=width;;html=1;" vertex="1" parent="Hd_F8_P-idC4PMliCgXe-16">
          <mxGeometry y="-0.2" width="101.6" height="76.2" as="geometry" />
        </mxCell>
        <UserObject label="" tags="Flowchart" id="Hd_F8_P-idC4PMliCgXe-20">
          <mxCell style="vsdxID=135;fillColor=none;gradientColor=none;strokeColor=none;spacingTop=-1;spacingBottom=-1;spacingLeft=-1;spacingRight=-1;points=[[0,0.75,0],[0,0.5,0],[0,0.25,0],[0.25,0,0],[0.5,0,0],[0.75,0,0],[1,0.25,0],[1,0.5,0],[1,0.75,0],[0.75,1,0],[0.5,1,0],[0.25,1,0]];labelBackgroundColor=none;rounded=1;html=1;whiteSpace=wrap;" vertex="1" parent="1">
            <mxGeometry x="594" y="477" width="101" height="76" as="geometry" />
          </mxCell>
        </UserObject>
        <mxCell id="Hd_F8_P-idC4PMliCgXe-21" style="vsdxID=136;fillColor=#4672c4;gradientColor=none;shape=stencil(nZCxDsIwDES/xitKk6V7KT/AF0TUEIuQVGmgwNeT9kCqOjB0s++efdKRaQZneyathpzilUfpsiOzJ60lOE6Sy0SmJdOcY+JLivfQYe9tIbWaFe5wU020VjadjvJmaPWu0jV0HN7iYwp8wlawXt8HCvsBqJewQH/mJvgPuhFcxZdhrgRlifdodOmvKywS6jftBw==);strokeColor=#939393;spacingTop=-1;spacingBottom=-1;spacingLeft=-1;spacingRight=-1;points=[[0,0.75,0],[0,0.5,0],[0,0.25,0],[0.25,0,0],[0.5,0,0],[0.75,0,0],[1,0.25,0],[1,0.5,0],[1,0.75,0],[0.75,1,0],[0.5,1,0],[0.25,1,0]];labelBackgroundColor=none;rounded=1;html=1;whiteSpace=wrap;" vertex="1" parent="Hd_F8_P-idC4PMliCgXe-20">
          <mxGeometry width="101" height="76" as="geometry" />
        </mxCell>
        <mxCell id="Hd_F8_P-idC4PMliCgXe-22" value="&lt;div style=&quot;font-size: 1px&quot;&gt;&lt;/div&gt;" style="verticalAlign=middle;align=center;overflow=width;vsdxID=148;fillColor=none;gradientColor=none;strokeColor=none;spacingTop=-1;spacingBottom=-1;spacingLeft=-1;spacingRight=-1;points=[[0,0.75,0],[0,0.5,0],[0,0.25,0],[0.25,0,0],[0.5,0,0],[0.75,0,0],[1,0.25,0],[1,0.5,0],[1,0.75,0],[0.75,1,0],[0.5,1,0],[0.25,1,0]];labelBackgroundColor=none;rounded=0;html=1;whiteSpace=wrap;" vertex="1" parent="Hd_F8_P-idC4PMliCgXe-20">
          <mxGeometry x="5" y="5" width="14" height="14" as="geometry" />
        </mxCell>
        <mxCell id="Hd_F8_P-idC4PMliCgXe-23" value="&lt;div style=&quot;font-size: 1px&quot;&gt;&lt;font style=&quot;font-size:11.29px;font-family:Calibri;color:#feffff;direction:ltr;letter-spacing:0px;line-height:120%;opacity:1&quot;&gt;Create Location(s)&lt;br/&gt;&lt;/font&gt;&lt;/div&gt;" style="text;vsdxID=135;fillColor=none;gradientColor=none;strokeColor=none;spacingTop=-1;spacingBottom=-1;spacingLeft=-1;spacingRight=-1;points=[[0,0.75,0],[0,0.5,0],[0,0.25,0],[0.25,0,0],[0.5,0,0],[0.75,0,0],[1,0.25,0],[1,0.5,0],[1,0.75,0],[0.75,1,0],[0.5,1,0],[0.25,1,0]];labelBackgroundColor=none;rounded=1;html=1;whiteSpace=wrap;verticalAlign=middle;align=center;overflow=width;;html=1;" vertex="1" parent="Hd_F8_P-idC4PMliCgXe-20">
          <mxGeometry y="-0.2" width="101.6" height="76.2" as="geometry" />
        </mxCell>
        <UserObject label="" tags="Flowchart" id="Hd_F8_P-idC4PMliCgXe-24">
          <mxCell style="vsdxID=181;fillColor=none;gradientColor=none;strokeColor=none;spacingTop=-1;spacingBottom=-1;spacingLeft=-1;spacingRight=-1;points=[[0,0.75,0],[0,0.5,0],[0,0.25,0],[0.25,0,0],[0.5,0,0],[0.75,0,0],[1,0.25,0],[1,0.5,0],[1,0.75,0],[0.75,1,0],[0.5,1,0],[0.25,1,0]];labelBackgroundColor=none;rounded=1;html=1;whiteSpace=wrap;" vertex="1" parent="1">
            <mxGeometry x="420" y="770" width="101" height="76" as="geometry" />
          </mxCell>
        </UserObject>
        <mxCell id="Hd_F8_P-idC4PMliCgXe-25" style="vsdxID=182;fillColor=#4672c4;gradientColor=none;shape=stencil(nZCxDsIwDES/xitKk6V7KT/AF0TUEIuQVGmgwNeT9kCqOjB0s++efdKRaQZneyathpzilUfpsiOzJ60lOE6Sy0SmJdOcY+JLivfQYe9tIbWaFe5wU020VjadjvJmaPWu0jV0HN7iYwp8wlawXt8HCvsBqJewQH/mJvgPuhFcxZdhrgRlifdodOmvKywS6jftBw==);strokeColor=#939393;spacingTop=-1;spacingBottom=-1;spacingLeft=-1;spacingRight=-1;points=[[0,0.75,0],[0,0.5,0],[0,0.25,0],[0.25,0,0],[0.5,0,0],[0.75,0,0],[1,0.25,0],[1,0.5,0],[1,0.75,0],[0.75,1,0],[0.5,1,0],[0.25,1,0]];labelBackgroundColor=none;rounded=1;html=1;whiteSpace=wrap;" vertex="1" parent="Hd_F8_P-idC4PMliCgXe-24">
          <mxGeometry width="101" height="76" as="geometry" />
        </mxCell>
        <mxCell id="Hd_F8_P-idC4PMliCgXe-26" value="&lt;div style=&quot;font-size: 1px&quot;&gt;&lt;/div&gt;" style="verticalAlign=middle;align=center;overflow=width;vsdxID=194;fillColor=none;gradientColor=none;strokeColor=none;spacingTop=-1;spacingBottom=-1;spacingLeft=-1;spacingRight=-1;points=[[0,0.75,0],[0,0.5,0],[0,0.25,0],[0.25,0,0],[0.5,0,0],[0.75,0,0],[1,0.25,0],[1,0.5,0],[1,0.75,0],[0.75,1,0],[0.5,1,0],[0.25,1,0]];labelBackgroundColor=none;rounded=0;html=1;whiteSpace=wrap;" vertex="1" parent="Hd_F8_P-idC4PMliCgXe-24">
          <mxGeometry x="5" y="5" width="14" height="14" as="geometry" />
        </mxCell>
        <mxCell id="Hd_F8_P-idC4PMliCgXe-27" value="&lt;div style=&quot;font-size: 1px&quot;&gt;&lt;font style=&quot;font-size:11.29px;font-family:Calibri;color:#feffff;direction:ltr;letter-spacing:0px;line-height:120%;opacity:1&quot;&gt;Create Survey record&lt;br/&gt;&lt;/font&gt;&lt;/div&gt;" style="text;vsdxID=181;fillColor=none;gradientColor=none;strokeColor=none;spacingTop=-1;spacingBottom=-1;spacingLeft=-1;spacingRight=-1;points=[[0,0.75,0],[0,0.5,0],[0,0.25,0],[0.25,0,0],[0.5,0,0],[0.75,0,0],[1,0.25,0],[1,0.5,0],[1,0.75,0],[0.75,1,0],[0.5,1,0],[0.25,1,0]];labelBackgroundColor=none;rounded=1;html=1;whiteSpace=wrap;verticalAlign=middle;align=center;overflow=width;;html=1;" vertex="1" parent="Hd_F8_P-idC4PMliCgXe-24">
          <mxGeometry y="-0.2" width="101.6" height="76.2" as="geometry" />
        </mxCell>
        <UserObject label="" tags="Flowchart" id="Hd_F8_P-idC4PMliCgXe-28">
          <mxCell style="vsdxID=204;fillColor=none;gradientColor=none;strokeColor=none;spacingTop=-1;spacingBottom=-1;spacingLeft=-1;spacingRight=-1;points=[[0,0.75,0],[0,0.5,0],[0,0.25,0],[0.25,0,0],[0.5,0,0],[0.75,0,0],[1,0.25,0],[1,0.5,0],[1,0.75,0],[0.75,1,0],[0.5,1,0],[0.25,1,0]];labelBackgroundColor=none;rounded=1;html=1;whiteSpace=wrap;" vertex="1" parent="1">
            <mxGeometry x="420" y="884" width="101" height="76" as="geometry" />
          </mxCell>
        </UserObject>
        <mxCell id="Hd_F8_P-idC4PMliCgXe-29" style="vsdxID=205;fillColor=#4672c4;gradientColor=none;shape=stencil(nZCxDsIwDES/xitKk6V7KT/AF0TUEIuQVGmgwNeT9kCqOjB0s++efdKRaQZneyathpzilUfpsiOzJ60lOE6Sy0SmJdOcY+JLivfQYe9tIbWaFe5wU020VjadjvJmaPWu0jV0HN7iYwp8wlawXt8HCvsBqJewQH/mJvgPuhFcxZdhrgRlifdodOmvKywS6jftBw==);strokeColor=#939393;spacingTop=-1;spacingBottom=-1;spacingLeft=-1;spacingRight=-1;points=[[0,0.75,0],[0,0.5,0],[0,0.25,0],[0.25,0,0],[0.5,0,0],[0.75,0,0],[1,0.25,0],[1,0.5,0],[1,0.75,0],[0.75,1,0],[0.5,1,0],[0.25,1,0]];labelBackgroundColor=none;rounded=1;html=1;whiteSpace=wrap;" vertex="1" parent="Hd_F8_P-idC4PMliCgXe-28">
          <mxGeometry width="101" height="76" as="geometry" />
        </mxCell>
        <mxCell id="Hd_F8_P-idC4PMliCgXe-30" value="&lt;div style=&quot;font-size: 1px&quot;&gt;&lt;/div&gt;" style="verticalAlign=middle;align=center;overflow=width;vsdxID=217;fillColor=none;gradientColor=none;strokeColor=none;spacingTop=-1;spacingBottom=-1;spacingLeft=-1;spacingRight=-1;points=[[0,0.75,0],[0,0.5,0],[0,0.25,0],[0.25,0,0],[0.5,0,0],[0.75,0,0],[1,0.25,0],[1,0.5,0],[1,0.75,0],[0.75,1,0],[0.5,1,0],[0.25,1,0]];labelBackgroundColor=none;rounded=0;html=1;whiteSpace=wrap;" vertex="1" parent="Hd_F8_P-idC4PMliCgXe-28">
          <mxGeometry x="5" y="5" width="14" height="14" as="geometry" />
        </mxCell>
        <mxCell id="Hd_F8_P-idC4PMliCgXe-31" value="&lt;div style=&quot;font-size: 1px&quot;&gt;&lt;font style=&quot;font-size:11.29px;font-family:Calibri;color:#feffff;direction:ltr;letter-spacing:0px;line-height:120%;opacity:1&quot;&gt;Create Survey Event(s)&lt;br/&gt;&lt;/font&gt;&lt;/div&gt;" style="text;vsdxID=204;fillColor=none;gradientColor=none;strokeColor=none;spacingTop=-1;spacingBottom=-1;spacingLeft=-1;spacingRight=-1;points=[[0,0.75,0],[0,0.5,0],[0,0.25,0],[0.25,0,0],[0.5,0,0],[0.75,0,0],[1,0.25,0],[1,0.5,0],[1,0.75,0],[0.75,1,0],[0.5,1,0],[0.25,1,0]];labelBackgroundColor=none;rounded=1;html=1;whiteSpace=wrap;verticalAlign=middle;align=center;overflow=width;;html=1;" vertex="1" parent="Hd_F8_P-idC4PMliCgXe-28">
          <mxGeometry y="-0.2" width="101.6" height="76.2" as="geometry" />
        </mxCell>
        <UserObject label="" tags="Flowchart" id="Hd_F8_P-idC4PMliCgXe-32">
          <mxCell style="vsdxID=227;fillColor=none;gradientColor=none;strokeColor=none;spacingTop=-1;spacingBottom=-1;spacingLeft=-1;spacingRight=-1;points=[[0,0.75,0],[0,0.5,0],[0,0.25,0],[0.25,0,0],[0.5,0,0],[0.75,0,0],[1,0.25,0],[1,0.5,0],[1,0.75,0],[0.75,1,0],[0.5,1,0],[0.25,1,0]];labelBackgroundColor=none;rounded=1;html=1;whiteSpace=wrap;" vertex="1" parent="1">
            <mxGeometry x="104" y="884" width="101" height="76" as="geometry" />
          </mxCell>
        </UserObject>
        <mxCell id="Hd_F8_P-idC4PMliCgXe-33" style="vsdxID=228;fillColor=#4672c4;gradientColor=none;shape=stencil(nZCxDsIwDES/xitKk6V7KT/AF0TUEIuQVGmgwNeT9kCqOjB0s++efdKRaQZneyathpzilUfpsiOzJ60lOE6Sy0SmJdOcY+JLivfQYe9tIbWaFe5wU020VjadjvJmaPWu0jV0HN7iYwp8wlawXt8HCvsBqJewQH/mJvgPuhFcxZdhrgRlifdodOmvKywS6jftBw==);strokeColor=#939393;spacingTop=-1;spacingBottom=-1;spacingLeft=-1;spacingRight=-1;points=[[0,0.75,0],[0,0.5,0],[0,0.25,0],[0.25,0,0],[0.5,0,0],[0.75,0,0],[1,0.25,0],[1,0.5,0],[1,0.75,0],[0.75,1,0],[0.5,1,0],[0.25,1,0]];labelBackgroundColor=none;rounded=1;html=1;whiteSpace=wrap;" vertex="1" parent="Hd_F8_P-idC4PMliCgXe-32">
          <mxGeometry width="101" height="76" as="geometry" />
        </mxCell>
        <mxCell id="Hd_F8_P-idC4PMliCgXe-34" value="&lt;div style=&quot;font-size: 1px&quot;&gt;&lt;/div&gt;" style="verticalAlign=middle;align=center;overflow=width;vsdxID=240;fillColor=none;gradientColor=none;strokeColor=none;spacingTop=-1;spacingBottom=-1;spacingLeft=-1;spacingRight=-1;points=[[0,0.75,0],[0,0.5,0],[0,0.25,0],[0.25,0,0],[0.5,0,0],[0.75,0,0],[1,0.25,0],[1,0.5,0],[1,0.75,0],[0.75,1,0],[0.5,1,0],[0.25,1,0]];labelBackgroundColor=none;rounded=0;html=1;whiteSpace=wrap;" vertex="1" parent="Hd_F8_P-idC4PMliCgXe-32">
          <mxGeometry x="5" y="5" width="14" height="14" as="geometry" />
        </mxCell>
        <mxCell id="Hd_F8_P-idC4PMliCgXe-35" value="&lt;div style=&quot;font-size: 1px&quot;&gt;&lt;font style=&quot;font-size:11.29px;font-family:Calibri;color:#feffff;direction:ltr;letter-spacing:0px;line-height:120%;opacity:1&quot;&gt;Create Method(s)&lt;br/&gt;&lt;/font&gt;&lt;/div&gt;" style="text;vsdxID=227;fillColor=none;gradientColor=none;strokeColor=none;spacingTop=-1;spacingBottom=-1;spacingLeft=-1;spacingRight=-1;points=[[0,0.75,0],[0,0.5,0],[0,0.25,0],[0.25,0,0],[0.5,0,0],[0.75,0,0],[1,0.25,0],[1,0.5,0],[1,0.75,0],[0.75,1,0],[0.5,1,0],[0.25,1,0]];labelBackgroundColor=none;rounded=1;html=1;whiteSpace=wrap;verticalAlign=middle;align=center;overflow=width;;html=1;" vertex="1" parent="Hd_F8_P-idC4PMliCgXe-32">
          <mxGeometry y="-0.2" width="101.6" height="76.2" as="geometry" />
        </mxCell>
        <UserObject label="" BpmnName="Create Biotope Occurrence(s) and Determination(s)" tags="Flowchart" id="Hd_F8_P-idC4PMliCgXe-36">
          <mxCell style="vsdxID=250;fillColor=none;gradientColor=none;strokeColor=none;spacingTop=-1;spacingBottom=-1;spacingLeft=-1;spacingRight=-1;points=[[0,0.75,0],[0,0.5,0],[0,0.25,0],[0.25,0,0],[0.5,0,0],[0.75,0,0],[1,0.25,0],[1,0.5,0],[1,0.75,0],[0.75,1,0],[0.5,1,0],[0.25,1,0]];labelBackgroundColor=none;rounded=1;html=1;whiteSpace=wrap;" vertex="1" parent="1">
            <mxGeometry x="581" y="1039" width="101" height="76" as="geometry" />
          </mxCell>
        </UserObject>
        <mxCell id="Hd_F8_P-idC4PMliCgXe-37" style="vsdxID=251;fillColor=#4672c4;gradientColor=none;shape=stencil(nZCxDsIwDES/xitKk6V7KT/AF0TUEIuQVGmgwNeT9kCqOjB0s++efdKRaQZneyathpzilUfpsiOzJ60lOE6Sy0SmJdOcY+JLivfQYe9tIbWaFe5wU020VjadjvJmaPWu0jV0HN7iYwp8wlawXt8HCvsBqJewQH/mJvgPuhFcxZdhrgRlifdodOmvKywS6jftBw==);strokeColor=#939393;spacingTop=-1;spacingBottom=-1;spacingLeft=-1;spacingRight=-1;points=[[0,0.75,0],[0,0.5,0],[0,0.25,0],[0.25,0,0],[0.5,0,0],[0.75,0,0],[1,0.25,0],[1,0.5,0],[1,0.75,0],[0.75,1,0],[0.5,1,0],[0.25,1,0]];labelBackgroundColor=none;rounded=1;html=1;whiteSpace=wrap;" vertex="1" parent="Hd_F8_P-idC4PMliCgXe-36">
          <mxGeometry width="101" height="76" as="geometry" />
        </mxCell>
        <mxCell id="Hd_F8_P-idC4PMliCgXe-38" value="&lt;div style=&quot;font-size: 1px&quot;&gt;&lt;/div&gt;" style="verticalAlign=middle;align=center;overflow=width;vsdxID=263;fillColor=none;gradientColor=none;strokeColor=none;spacingTop=-1;spacingBottom=-1;spacingLeft=-1;spacingRight=-1;points=[[0,0.75,0],[0,0.5,0],[0,0.25,0],[0.25,0,0],[0.5,0,0],[0.75,0,0],[1,0.25,0],[1,0.5,0],[1,0.75,0],[0.75,1,0],[0.5,1,0],[0.25,1,0]];labelBackgroundColor=none;rounded=0;html=1;whiteSpace=wrap;" vertex="1" parent="Hd_F8_P-idC4PMliCgXe-36">
          <mxGeometry x="5" y="5" width="14" height="14" as="geometry" />
        </mxCell>
        <mxCell id="Hd_F8_P-idC4PMliCgXe-39" value="&lt;div style=&quot;font-size: 1px&quot;&gt;&lt;font style=&quot;font-size:11.29px;font-family:Calibri;color:#feffff;direction:ltr;letter-spacing:0px;line-height:120%;opacity:1&quot;&gt;Create Biotope Occurrence(s) and Determination(s)&lt;br/&gt;&lt;/font&gt;&lt;/div&gt;" style="text;vsdxID=250;fillColor=none;gradientColor=none;strokeColor=none;spacingTop=-1;spacingBottom=-1;spacingLeft=-1;spacingRight=-1;points=[[0,0.75,0],[0,0.5,0],[0,0.25,0],[0.25,0,0],[0.5,0,0],[0.75,0,0],[1,0.25,0],[1,0.5,0],[1,0.75,0],[0.75,1,0],[0.5,1,0],[0.25,1,0]];labelBackgroundColor=none;rounded=1;html=1;whiteSpace=wrap;verticalAlign=middle;align=center;overflow=width;;html=1;" vertex="1" parent="Hd_F8_P-idC4PMliCgXe-36">
          <mxGeometry y="-0.2" width="101.6" height="76.2" as="geometry" />
        </mxCell>
        <UserObject label="" tags="Flowchart" id="Hd_F8_P-idC4PMliCgXe-40">
          <mxCell style="vsdxID=273;fillColor=none;gradientColor=none;strokeColor=none;spacingTop=-1;spacingBottom=-1;spacingLeft=-1;spacingRight=-1;points=[[0,0.75,0],[0,0.5,0],[0,0.25,0],[0.25,0,0],[0.5,0,0],[0.75,0,0],[1,0.25,0],[1,0.5,0],[1,0.75,0],[0.75,1,0],[0.5,1,0],[0.25,1,0]];labelBackgroundColor=none;rounded=1;html=1;whiteSpace=wrap;" vertex="1" parent="1">
            <mxGeometry x="420" y="997" width="101" height="76" as="geometry" />
          </mxCell>
        </UserObject>
        <mxCell id="Hd_F8_P-idC4PMliCgXe-41" style="vsdxID=274;fillColor=#4672c4;gradientColor=none;shape=stencil(nZCxDsIwDES/xitKk6V7KT/AF0TUEIuQVGmgwNeT9kCqOjB0s++efdKRaQZneyathpzilUfpsiOzJ60lOE6Sy0SmJdOcY+JLivfQYe9tIbWaFe5wU020VjadjvJmaPWu0jV0HN7iYwp8wlawXt8HCvsBqJewQH/mJvgPuhFcxZdhrgRlifdodOmvKywS6jftBw==);strokeColor=#939393;spacingTop=-1;spacingBottom=-1;spacingLeft=-1;spacingRight=-1;points=[[0,0.75,0],[0,0.5,0],[0,0.25,0],[0.25,0,0],[0.5,0,0],[0.75,0,0],[1,0.25,0],[1,0.5,0],[1,0.75,0],[0.75,1,0],[0.5,1,0],[0.25,1,0]];labelBackgroundColor=none;rounded=1;html=1;whiteSpace=wrap;" vertex="1" parent="Hd_F8_P-idC4PMliCgXe-40">
          <mxGeometry width="101" height="76" as="geometry" />
        </mxCell>
        <mxCell id="Hd_F8_P-idC4PMliCgXe-42" value="&lt;div style=&quot;font-size: 1px&quot;&gt;&lt;/div&gt;" style="verticalAlign=middle;align=center;overflow=width;vsdxID=286;fillColor=none;gradientColor=none;strokeColor=none;spacingTop=-1;spacingBottom=-1;spacingLeft=-1;spacingRight=-1;points=[[0,0.75,0],[0,0.5,0],[0,0.25,0],[0.25,0,0],[0.5,0,0],[0.75,0,0],[1,0.25,0],[1,0.5,0],[1,0.75,0],[0.75,1,0],[0.5,1,0],[0.25,1,0]];labelBackgroundColor=none;rounded=0;html=1;whiteSpace=wrap;" vertex="1" parent="Hd_F8_P-idC4PMliCgXe-40">
          <mxGeometry x="5" y="5" width="14" height="14" as="geometry" />
        </mxCell>
        <mxCell id="Hd_F8_P-idC4PMliCgXe-43" value="&lt;div style=&quot;font-size: 1px&quot;&gt;&lt;font style=&quot;font-size:11.29px;font-family:Calibri;color:#feffff;direction:ltr;letter-spacing:0px;line-height:120%;opacity:1&quot;&gt;Create Sample Event(s)&lt;br/&gt;&lt;/font&gt;&lt;/div&gt;" style="text;vsdxID=273;fillColor=none;gradientColor=none;strokeColor=none;spacingTop=-1;spacingBottom=-1;spacingLeft=-1;spacingRight=-1;points=[[0,0.75,0],[0,0.5,0],[0,0.25,0],[0.25,0,0],[0.5,0,0],[0.75,0,0],[1,0.25,0],[1,0.5,0],[1,0.75,0],[0.75,1,0],[0.5,1,0],[0.25,1,0]];labelBackgroundColor=none;rounded=1;html=1;whiteSpace=wrap;verticalAlign=middle;align=center;overflow=width;;html=1;" vertex="1" parent="Hd_F8_P-idC4PMliCgXe-40">
          <mxGeometry y="-0.2" width="101.6" height="76.2" as="geometry" />
        </mxCell>
        <UserObject label="" tags="Flowchart" id="Hd_F8_P-idC4PMliCgXe-44">
          <mxCell style="vsdxID=296;fillColor=none;gradientColor=none;strokeColor=none;spacingTop=-1;spacingBottom=-1;spacingLeft=-1;spacingRight=-1;points=[[0,0.75,0],[0,0.5,0],[0,0.25,0],[0.25,0,0],[0.5,0,0],[0.75,0,0],[1,0.25,0],[1,0.5,0],[1,0.75,0],[0.75,1,0],[0.5,1,0],[0.25,1,0]];labelBackgroundColor=none;rounded=1;html=1;whiteSpace=wrap;" vertex="1" parent="1">
            <mxGeometry x="420" y="1150" width="101" height="76" as="geometry" />
          </mxCell>
        </UserObject>
        <mxCell id="Hd_F8_P-idC4PMliCgXe-45" style="vsdxID=297;fillColor=#4672c4;gradientColor=none;shape=stencil(nZCxDsIwDES/xitKk6V7KT/AF0TUEIuQVGmgwNeT9kCqOjB0s++efdKRaQZneyathpzilUfpsiOzJ60lOE6Sy0SmJdOcY+JLivfQYe9tIbWaFe5wU020VjadjvJmaPWu0jV0HN7iYwp8wlawXt8HCvsBqJewQH/mJvgPuhFcxZdhrgRlifdodOmvKywS6jftBw==);strokeColor=#939393;spacingTop=-1;spacingBottom=-1;spacingLeft=-1;spacingRight=-1;points=[[0,0.75,0],[0,0.5,0],[0,0.25,0],[0.25,0,0],[0.5,0,0],[0.75,0,0],[1,0.25,0],[1,0.5,0],[1,0.75,0],[0.75,1,0],[0.5,1,0],[0.25,1,0]];labelBackgroundColor=none;rounded=1;html=1;whiteSpace=wrap;" vertex="1" parent="Hd_F8_P-idC4PMliCgXe-44">
          <mxGeometry width="101" height="76" as="geometry" />
        </mxCell>
        <mxCell id="Hd_F8_P-idC4PMliCgXe-46" value="&lt;div style=&quot;font-size: 1px&quot;&gt;&lt;/div&gt;" style="verticalAlign=middle;align=center;overflow=width;vsdxID=309;fillColor=none;gradientColor=none;strokeColor=none;spacingTop=-1;spacingBottom=-1;spacingLeft=-1;spacingRight=-1;points=[[0,0.75,0],[0,0.5,0],[0,0.25,0],[0.25,0,0],[0.5,0,0],[0.75,0,0],[1,0.25,0],[1,0.5,0],[1,0.75,0],[0.75,1,0],[0.5,1,0],[0.25,1,0]];labelBackgroundColor=none;rounded=0;html=1;whiteSpace=wrap;" vertex="1" parent="Hd_F8_P-idC4PMliCgXe-44">
          <mxGeometry x="5" y="5" width="14" height="14" as="geometry" />
        </mxCell>
        <mxCell id="Hd_F8_P-idC4PMliCgXe-47" value="&lt;div style=&quot;font-size: 1px&quot;&gt;&lt;font style=&quot;font-size:11.29px;font-family:Calibri;color:#feffff;direction:ltr;letter-spacing:0px;line-height:120%;opacity:1&quot;&gt;Create Replicate(s)&lt;br/&gt;&lt;/font&gt;&lt;/div&gt;" style="text;vsdxID=296;fillColor=none;gradientColor=none;strokeColor=none;spacingTop=-1;spacingBottom=-1;spacingLeft=-1;spacingRight=-1;points=[[0,0.75,0],[0,0.5,0],[0,0.25,0],[0.25,0,0],[0.5,0,0],[0.75,0,0],[1,0.25,0],[1,0.5,0],[1,0.75,0],[0.75,1,0],[0.5,1,0],[0.25,1,0]];labelBackgroundColor=none;rounded=1;html=1;whiteSpace=wrap;verticalAlign=middle;align=center;overflow=width;;html=1;" vertex="1" parent="Hd_F8_P-idC4PMliCgXe-44">
          <mxGeometry y="-0.2" width="101.6" height="76.2" as="geometry" />
        </mxCell>
        <UserObject label="" tags="Flowchart" id="Hd_F8_P-idC4PMliCgXe-48">
          <mxCell style="vsdxID=319;fillColor=none;gradientColor=none;strokeColor=none;spacingTop=-1;spacingBottom=-1;spacingLeft=-1;spacingRight=-1;points=[[0,0.75,0],[0,0.5,0],[0,0.25,0],[0.25,0,0],[0.5,0,0],[0.75,0,0],[1,0.25,0],[1,0.5,0],[1,0.75,0],[0.75,1,0],[0.5,1,0],[0.25,1,0]];labelBackgroundColor=none;rounded=1;html=1;whiteSpace=wrap;" vertex="1" parent="1">
            <mxGeometry x="579" y="1150" width="101" height="76" as="geometry" />
          </mxCell>
        </UserObject>
        <mxCell id="Hd_F8_P-idC4PMliCgXe-49" style="vsdxID=320;fillColor=#4672c4;gradientColor=none;shape=stencil(nZCxDsIwDES/xitKk6V7KT/AF0TUEIuQVGmgwNeT9kCqOjB0s++efdKRaQZneyathpzilUfpsiOzJ60lOE6Sy0SmJdOcY+JLivfQYe9tIbWaFe5wU020VjadjvJmaPWu0jV0HN7iYwp8wlawXt8HCvsBqJewQH/mJvgPuhFcxZdhrgRlifdodOmvKywS6jftBw==);strokeColor=#939393;spacingTop=-1;spacingBottom=-1;spacingLeft=-1;spacingRight=-1;points=[[0,0.75,0],[0,0.5,0],[0,0.25,0],[0.25,0,0],[0.5,0,0],[0.75,0,0],[1,0.25,0],[1,0.5,0],[1,0.75,0],[0.75,1,0],[0.5,1,0],[0.25,1,0]];labelBackgroundColor=none;rounded=1;html=1;whiteSpace=wrap;" vertex="1" parent="Hd_F8_P-idC4PMliCgXe-48">
          <mxGeometry width="101" height="76" as="geometry" />
        </mxCell>
        <mxCell id="Hd_F8_P-idC4PMliCgXe-50" value="&lt;div style=&quot;font-size: 1px&quot;&gt;&lt;/div&gt;" style="verticalAlign=middle;align=center;overflow=width;vsdxID=332;fillColor=none;gradientColor=none;strokeColor=none;spacingTop=-1;spacingBottom=-1;spacingLeft=-1;spacingRight=-1;points=[[0,0.75,0],[0,0.5,0],[0,0.25,0],[0.25,0,0],[0.5,0,0],[0.75,0,0],[1,0.25,0],[1,0.5,0],[1,0.75,0],[0.75,1,0],[0.5,1,0],[0.25,1,0]];labelBackgroundColor=none;rounded=0;html=1;whiteSpace=wrap;" vertex="1" parent="Hd_F8_P-idC4PMliCgXe-48">
          <mxGeometry x="5" y="5" width="14" height="14" as="geometry" />
        </mxCell>
        <mxCell id="Hd_F8_P-idC4PMliCgXe-51" value="&lt;div style=&quot;font-size: 1px&quot;&gt;&lt;font style=&quot;font-size:11.29px;font-family:Calibri;color:#feffff;direction:ltr;letter-spacing:0px;line-height:120%;opacity:1&quot;&gt;Create Taxon Occurrence(s) and Determination(s)&lt;br/&gt;&lt;/font&gt;&lt;/div&gt;" style="text;vsdxID=319;fillColor=none;gradientColor=none;strokeColor=none;spacingTop=-1;spacingBottom=-1;spacingLeft=-1;spacingRight=-1;points=[[0,0.75,0],[0,0.5,0],[0,0.25,0],[0.25,0,0],[0.5,0,0],[0.75,0,0],[1,0.25,0],[1,0.5,0],[1,0.75,0],[0.75,1,0],[0.5,1,0],[0.25,1,0]];labelBackgroundColor=none;rounded=1;html=1;whiteSpace=wrap;verticalAlign=middle;align=center;overflow=width;;html=1;" vertex="1" parent="Hd_F8_P-idC4PMliCgXe-48">
          <mxGeometry y="-0.2" width="101.6" height="76.2" as="geometry" />
        </mxCell>
        <UserObject label="" tags="Flowchart" id="Hd_F8_P-idC4PMliCgXe-52">
          <mxCell style="vsdxID=342;fillColor=none;gradientColor=none;strokeColor=none;spacingTop=-1;spacingBottom=-1;spacingLeft=-1;spacingRight=-1;points=[[0,0.75,0],[0,0.5,0],[0,0.25,0],[0.25,0,0],[0.5,0,0],[0.75,0,0],[1,0.25,0],[1,0.5,0],[1,0.75,0],[0.75,1,0],[0.5,1,0],[0.25,1,0]];labelBackgroundColor=none;rounded=1;html=1;whiteSpace=wrap;" vertex="1" parent="1">
            <mxGeometry x="730" y="1150" width="101" height="76" as="geometry" />
          </mxCell>
        </UserObject>
        <mxCell id="Hd_F8_P-idC4PMliCgXe-53" style="vsdxID=343;fillColor=#4672c4;gradientColor=none;shape=stencil(nZCxDsIwDES/xitKk6V7KT/AF0TUEIuQVGmgwNeT9kCqOjB0s++efdKRaQZneyathpzilUfpsiOzJ60lOE6Sy0SmJdOcY+JLivfQYe9tIbWaFe5wU020VjadjvJmaPWu0jV0HN7iYwp8wlawXt8HCvsBqJewQH/mJvgPuhFcxZdhrgRlifdodOmvKywS6jftBw==);strokeColor=#939393;spacingTop=-1;spacingBottom=-1;spacingLeft=-1;spacingRight=-1;points=[[0,0.75,0],[0,0.5,0],[0,0.25,0],[0.25,0,0],[0.5,0,0],[0.75,0,0],[1,0.25,0],[1,0.5,0],[1,0.75,0],[0.75,1,0],[0.5,1,0],[0.25,1,0]];labelBackgroundColor=none;rounded=1;html=1;whiteSpace=wrap;" vertex="1" parent="Hd_F8_P-idC4PMliCgXe-52">
          <mxGeometry width="101" height="76" as="geometry" />
        </mxCell>
        <mxCell id="Hd_F8_P-idC4PMliCgXe-54" value="&lt;div style=&quot;font-size: 1px&quot;&gt;&lt;/div&gt;" style="verticalAlign=middle;align=center;overflow=width;vsdxID=355;fillColor=none;gradientColor=none;strokeColor=none;spacingTop=-1;spacingBottom=-1;spacingLeft=-1;spacingRight=-1;points=[[0,0.75,0],[0,0.5,0],[0,0.25,0],[0.25,0,0],[0.5,0,0],[0.75,0,0],[1,0.25,0],[1,0.5,0],[1,0.75,0],[0.75,1,0],[0.5,1,0],[0.25,1,0]];labelBackgroundColor=none;rounded=0;html=1;whiteSpace=wrap;" vertex="1" parent="Hd_F8_P-idC4PMliCgXe-52">
          <mxGeometry x="5" y="5" width="14" height="14" as="geometry" />
        </mxCell>
        <mxCell id="Hd_F8_P-idC4PMliCgXe-55" value="&lt;div style=&quot;font-size: 1px&quot;&gt;&lt;font style=&quot;font-size:11.29px;font-family:Calibri;color:#feffff;direction:ltr;letter-spacing:0px;line-height:120%;opacity:1&quot;&gt;Create Taxon Morphological Determination(s)&lt;br/&gt;&lt;/font&gt;&lt;/div&gt;" style="text;vsdxID=342;fillColor=none;gradientColor=none;strokeColor=none;spacingTop=-1;spacingBottom=-1;spacingLeft=-1;spacingRight=-1;points=[[0,0.75,0],[0,0.5,0],[0,0.25,0],[0.25,0,0],[0.5,0,0],[0.75,0,0],[1,0.25,0],[1,0.5,0],[1,0.75,0],[0.75,1,0],[0.5,1,0],[0.25,1,0]];labelBackgroundColor=none;rounded=1;html=1;whiteSpace=wrap;verticalAlign=middle;align=center;overflow=width;;html=1;" vertex="1" parent="Hd_F8_P-idC4PMliCgXe-52">
          <mxGeometry y="-0.2" width="101.6" height="76.2" as="geometry" />
        </mxCell>
        <UserObject label="" tags="Flowchart" id="Hd_F8_P-idC4PMliCgXe-56">
          <mxCell style="vsdxID=365;fillColor=none;gradientColor=none;strokeColor=none;spacingTop=-1;spacingBottom=-1;spacingLeft=-1;spacingRight=-1;points=[[0,0.75,0],[0,0.5,0],[0,0.25,0],[0.25,0,0],[0.5,0,0],[0.75,0,0],[1,0.25,0],[1,0.5,0],[1,0.75,0],[0.75,1,0],[0.5,1,0],[0.25,1,0]];labelBackgroundColor=none;rounded=1;html=1;whiteSpace=wrap;" vertex="1" parent="1">
            <mxGeometry x="420" y="1264" width="101" height="76" as="geometry" />
          </mxCell>
        </UserObject>
        <mxCell id="Hd_F8_P-idC4PMliCgXe-57" style="vsdxID=366;fillColor=#4672c4;gradientColor=none;shape=stencil(nZCxDsIwDES/xitKk6V7KT/AF0TUEIuQVGmgwNeT9kCqOjB0s++efdKRaQZneyathpzilUfpsiOzJ60lOE6Sy0SmJdOcY+JLivfQYe9tIbWaFe5wU020VjadjvJmaPWu0jV0HN7iYwp8wlawXt8HCvsBqJewQH/mJvgPuhFcxZdhrgRlifdodOmvKywS6jftBw==);strokeColor=#939393;spacingTop=-1;spacingBottom=-1;spacingLeft=-1;spacingRight=-1;points=[[0,0.75,0],[0,0.5,0],[0,0.25,0],[0.25,0,0],[0.5,0,0],[0.75,0,0],[1,0.25,0],[1,0.5,0],[1,0.75,0],[0.75,1,0],[0.5,1,0],[0.25,1,0]];labelBackgroundColor=none;rounded=1;html=1;whiteSpace=wrap;" vertex="1" parent="Hd_F8_P-idC4PMliCgXe-56">
          <mxGeometry width="101" height="76" as="geometry" />
        </mxCell>
        <mxCell id="Hd_F8_P-idC4PMliCgXe-58" value="&lt;div style=&quot;font-size: 1px&quot;&gt;&lt;/div&gt;" style="verticalAlign=middle;align=center;overflow=width;vsdxID=378;fillColor=none;gradientColor=none;strokeColor=none;spacingTop=-1;spacingBottom=-1;spacingLeft=-1;spacingRight=-1;points=[[0,0.75,0],[0,0.5,0],[0,0.25,0],[0.25,0,0],[0.5,0,0],[0.75,0,0],[1,0.25,0],[1,0.5,0],[1,0.75,0],[0.75,1,0],[0.5,1,0],[0.25,1,0]];labelBackgroundColor=none;rounded=0;html=1;whiteSpace=wrap;" vertex="1" parent="Hd_F8_P-idC4PMliCgXe-56">
          <mxGeometry x="5" y="5" width="14" height="14" as="geometry" />
        </mxCell>
        <mxCell id="Hd_F8_P-idC4PMliCgXe-59" value="&lt;div style=&quot;font-size: 1px&quot;&gt;&lt;font style=&quot;font-size:11.29px;font-family:Calibri;color:#feffff;direction:ltr;letter-spacing:0px;line-height:120%;opacity:1&quot;&gt;Create Sediment record(s)&lt;br/&gt;&lt;/font&gt;&lt;/div&gt;" style="text;vsdxID=365;fillColor=none;gradientColor=none;strokeColor=none;spacingTop=-1;spacingBottom=-1;spacingLeft=-1;spacingRight=-1;points=[[0,0.75,0],[0,0.5,0],[0,0.25,0],[0.25,0,0],[0.5,0,0],[0.75,0,0],[1,0.25,0],[1,0.5,0],[1,0.75,0],[0.75,1,0],[0.5,1,0],[0.25,1,0]];labelBackgroundColor=none;rounded=1;html=1;whiteSpace=wrap;verticalAlign=middle;align=center;overflow=width;;html=1;" vertex="1" parent="Hd_F8_P-idC4PMliCgXe-56">
          <mxGeometry y="-0.2" width="101.6" height="76.2" as="geometry" />
        </mxCell>
        <UserObject label="" tags="Flowchart" id="Hd_F8_P-idC4PMliCgXe-60">
          <mxCell style="vsdxID=388;fillColor=none;gradientColor=none;strokeColor=none;spacingTop=-1;spacingBottom=-1;spacingLeft=-1;spacingRight=-1;points=[[0,0.75,0],[0,0.5,0],[0,0.25,0],[0.25,0,0],[0.5,0,0],[0.75,0,0],[1,0.25,0],[1,0.5,0],[1,0.75,0],[0.75,1,0],[0.5,1,0],[0.25,1,0]];labelBackgroundColor=none;rounded=1;html=1;whiteSpace=wrap;" vertex="1" parent="1">
            <mxGeometry x="420" y="1369" width="101" height="76" as="geometry" />
          </mxCell>
        </UserObject>
        <mxCell id="Hd_F8_P-idC4PMliCgXe-61" style="vsdxID=389;fillColor=#4672c4;gradientColor=none;shape=stencil(nZCxDsIwDES/xitKk6V7KT/AF0TUEIuQVGmgwNeT9kCqOjB0s++efdKRaQZneyathpzilUfpsiOzJ60lOE6Sy0SmJdOcY+JLivfQYe9tIbWaFe5wU020VjadjvJmaPWu0jV0HN7iYwp8wlawXt8HCvsBqJewQH/mJvgPuhFcxZdhrgRlifdodOmvKywS6jftBw==);strokeColor=#939393;spacingTop=-1;spacingBottom=-1;spacingLeft=-1;spacingRight=-1;points=[[0,0.75,0],[0,0.5,0],[0,0.25,0],[0.25,0,0],[0.5,0,0],[0.75,0,0],[1,0.25,0],[1,0.5,0],[1,0.75,0],[0.75,1,0],[0.5,1,0],[0.25,1,0]];labelBackgroundColor=none;rounded=1;html=1;whiteSpace=wrap;" vertex="1" parent="Hd_F8_P-idC4PMliCgXe-60">
          <mxGeometry width="101" height="76" as="geometry" />
        </mxCell>
        <mxCell id="Hd_F8_P-idC4PMliCgXe-62" value="&lt;div style=&quot;font-size: 1px&quot;&gt;&lt;/div&gt;" style="verticalAlign=middle;align=center;overflow=width;vsdxID=401;fillColor=none;gradientColor=none;strokeColor=none;spacingTop=-1;spacingBottom=-1;spacingLeft=-1;spacingRight=-1;points=[[0,0.75,0],[0,0.5,0],[0,0.25,0],[0.25,0,0],[0.5,0,0],[0.75,0,0],[1,0.25,0],[1,0.5,0],[1,0.75,0],[0.75,1,0],[0.5,1,0],[0.25,1,0]];labelBackgroundColor=none;rounded=0;html=1;whiteSpace=wrap;" vertex="1" parent="Hd_F8_P-idC4PMliCgXe-60">
          <mxGeometry x="5" y="5" width="14" height="14" as="geometry" />
        </mxCell>
        <mxCell id="Hd_F8_P-idC4PMliCgXe-63" value="&lt;div style=&quot;font-size: 1px&quot;&gt;&lt;font style=&quot;font-size:11.29px;font-family:Calibri;color:#feffff;direction:ltr;letter-spacing:0px;line-height:120%;opacity:1&quot;&gt;Create relevant PSA record(s)&lt;br/&gt;&lt;/font&gt;&lt;/div&gt;" style="text;vsdxID=388;fillColor=none;gradientColor=none;strokeColor=none;spacingTop=-1;spacingBottom=-1;spacingLeft=-1;spacingRight=-1;points=[[0,0.75,0],[0,0.5,0],[0,0.25,0],[0.25,0,0],[0.5,0,0],[0.75,0,0],[1,0.25,0],[1,0.5,0],[1,0.75,0],[0.75,1,0],[0.5,1,0],[0.25,1,0]];labelBackgroundColor=none;rounded=1;html=1;whiteSpace=wrap;verticalAlign=middle;align=center;overflow=width;;html=1;" vertex="1" parent="Hd_F8_P-idC4PMliCgXe-60">
          <mxGeometry y="-0.2" width="101.6" height="76.2" as="geometry" />
        </mxCell>
        <UserObject label="&lt;div style=&quot;font-size: 1px&quot;&gt;&lt;font style=&quot;font-size:11.29px;font-family:Calibri;color:#4672c4;direction:ltr;letter-spacing:0px;line-height:120%;opacity:1&quot;&gt;Request new organisation as support ticket&lt;br&gt;&lt;/font&gt;&lt;/div&gt;" tags="Flowchart" id="Hd_F8_P-idC4PMliCgXe-64">
          <mxCell style="verticalAlign=top;align=center;overflow=width;vsdxID=411;fillColor=none;gradientColor=none;shape=mxgraph.ios7.icons.mail;strokeColor=#0080F0;points=[[0.47,1,0]];labelBackgroundColor=none;rounded=0;html=1;whiteSpace=wrap;verticalLabelPosition=top;strokeWidth=2;shadow=0;dashed=0;labelPosition=center;spacingTop=0;spacingBottom=6;sketch=1;curveFitting=1;jiggle=2;" vertex="1" parent="1">
            <mxGeometry x="607" y="219" width="76" height="50" as="geometry" />
          </mxCell>
        </UserObject>
        <UserObject label="&lt;div style=&quot;font-size: 1px&quot;&gt;&lt;font style=&quot;font-size:11.29px;font-family:Calibri;color:#345593;direction:ltr;letter-spacing:0px;line-height:120%;opacity:1&quot;&gt;No&lt;br/&gt;&lt;/font&gt;&lt;/div&gt;" tags="Connector" id="Hd_F8_P-idC4PMliCgXe-65">
          <mxCell style="vsdxID=421;edgeStyle=none;startArrow=none;endArrow=block;startSize=5;endSize=5;strokeColor=#4672c4;spacingTop=0;spacingBottom=0;spacingLeft=0;spacingRight=0;verticalAlign=middle;html=1;labelBackgroundColor=#ffffff;rounded=0;align=center;overflow=width;strokeWidth=2;" edge="1" parent="1">
            <mxGeometry relative="1" as="geometry">
              <mxPoint x="10" y="-13" as="offset" />
              <Array as="points" />
              <mxPoint x="471" y="420" as="sourcePoint" />
              <mxPoint x="471" y="475" as="targetPoint" />
            </mxGeometry>
          </mxCell>
        </UserObject>
        <UserObject label="" tags="Flowchart" id="Hd_F8_P-idC4PMliCgXe-66">
          <mxCell style="vsdxID=474;fillColor=none;gradientColor=none;strokeColor=none;spacingTop=-1;spacingBottom=-1;spacingLeft=-1;spacingRight=-1;points=[[0.5,0,0],[1,0.5,0],[0.5,1,0],[0,0.5,0]];labelBackgroundColor=none;rounded=0;html=1;whiteSpace=wrap;strokeWidth=2;" vertex="1" parent="1">
            <mxGeometry x="199" y="625" width="136" height="76" as="geometry" />
          </mxCell>
        </UserObject>
        <mxCell id="Hd_F8_P-idC4PMliCgXe-67" style="vsdxID=475;fillColor=#4672c4;gradientColor=none;shape=stencil(nZBNDoUgDIRP0z3SeAKf3sNElEYEg/h3+wdpjIaFC3cz9OukDGC16HZWIMUSvBvVTl3QgD+QkqxWnkJUgDVg1TuvBu9W27Gf20QmNbktJRy8V4q0IsXJthDsG2YN2Qd7DS+4fGGz3Bfyc2Z2axT3J3syhjt6zvNS4hMXivUf);strokeColor=#939393;points=[[0.5,0,0],[1,0.5,0],[0.5,1,0],[0,0.5,0]];labelBackgroundColor=none;rounded=0;html=1;whiteSpace=wrap;" vertex="1" parent="Hd_F8_P-idC4PMliCgXe-66">
          <mxGeometry width="136" height="76" as="geometry" />
        </mxCell>
        <mxCell id="Hd_F8_P-idC4PMliCgXe-68" value="&lt;div style=&quot;font-size: 1px&quot;&gt;&lt;font style=&quot;font-size:11.29px;font-family:Calibri;color:#feffff;direction:ltr;letter-spacing:0px;line-height:120%;opacity:1&quot;&gt;Does the project already exist?&lt;br/&gt;&lt;/font&gt;&lt;/div&gt;" style="text;vsdxID=474;fillColor=none;gradientColor=none;strokeColor=none;spacingTop=-1;spacingBottom=-1;spacingLeft=-1;spacingRight=-1;points=[[0.5,0,0],[1,0.5,0],[0.5,1,0],[0,0.5,0]];labelBackgroundColor=none;rounded=0;html=1;whiteSpace=wrap;verticalAlign=middle;align=center;overflow=width;;html=1;" vertex="1" parent="Hd_F8_P-idC4PMliCgXe-66">
          <mxGeometry x="26.02" y="9.33" width="84.66" height="57.15" as="geometry" />
        </mxCell>
        <UserObject label="" tags="Flowchart" id="Hd_F8_P-idC4PMliCgXe-69">
          <mxCell style="vsdxID=490;fillColor=none;gradientColor=none;strokeColor=none;spacingTop=-1;spacingBottom=-1;spacingLeft=-1;spacingRight=-1;points=[[0,0.75,0],[0,0.5,0],[0,0.25,0],[0.25,0,0],[0.5,0,0],[0.75,0,0],[1,0.25,0],[1,0.5,0],[1,0.75,0],[0.75,1,0],[0.5,1,0],[0.25,1,0]];labelBackgroundColor=none;rounded=1;html=1;whiteSpace=wrap;" vertex="1" parent="1">
            <mxGeometry x="163" y="770" width="101" height="76" as="geometry" />
          </mxCell>
        </UserObject>
        <mxCell id="Hd_F8_P-idC4PMliCgXe-70" style="vsdxID=491;fillColor=#4672c4;gradientColor=none;shape=stencil(nZCxDsIwDES/xitKk6V7KT/AF0TUEIuQVGmgwNeT9kCqOjB0s++efdKRaQZneyathpzilUfpsiOzJ60lOE6Sy0SmJdOcY+JLivfQYe9tIbWaFe5wU020VjadjvJmaPWu0jV0HN7iYwp8wlawXt8HCvsBqJewQH/mJvgPuhFcxZdhrgRlifdodOmvKywS6jftBw==);strokeColor=#939393;spacingTop=-1;spacingBottom=-1;spacingLeft=-1;spacingRight=-1;points=[[0,0.75,0],[0,0.5,0],[0,0.25,0],[0.25,0,0],[0.5,0,0],[0.75,0,0],[1,0.25,0],[1,0.5,0],[1,0.75,0],[0.75,1,0],[0.5,1,0],[0.25,1,0]];labelBackgroundColor=none;rounded=1;html=1;whiteSpace=wrap;" vertex="1" parent="Hd_F8_P-idC4PMliCgXe-69">
          <mxGeometry width="101" height="76" as="geometry" />
        </mxCell>
        <mxCell id="Hd_F8_P-idC4PMliCgXe-71" value="&lt;div style=&quot;font-size: 1px&quot;&gt;&lt;/div&gt;" style="verticalAlign=middle;align=center;overflow=width;vsdxID=503;fillColor=none;gradientColor=none;strokeColor=none;spacingTop=-1;spacingBottom=-1;spacingLeft=-1;spacingRight=-1;points=[[0,0.75,0],[0,0.5,0],[0,0.25,0],[0.25,0,0],[0.5,0,0],[0.75,0,0],[1,0.25,0],[1,0.5,0],[1,0.75,0],[0.75,1,0],[0.5,1,0],[0.25,1,0]];labelBackgroundColor=none;rounded=0;html=1;whiteSpace=wrap;" vertex="1" parent="Hd_F8_P-idC4PMliCgXe-69">
          <mxGeometry x="5" y="5" width="14" height="14" as="geometry" />
        </mxCell>
        <mxCell id="Hd_F8_P-idC4PMliCgXe-72" value="&lt;div style=&quot;font-size: 1px&quot;&gt;&lt;font style=&quot;font-size:11.29px;font-family:Calibri;color:#feffff;direction:ltr;letter-spacing:0px;line-height:120%;opacity:1&quot;&gt;Create Project record&lt;br/&gt;&lt;/font&gt;&lt;/div&gt;" style="text;vsdxID=490;fillColor=none;gradientColor=none;strokeColor=none;spacingTop=-1;spacingBottom=-1;spacingLeft=-1;spacingRight=-1;points=[[0,0.75,0],[0,0.5,0],[0,0.25,0],[0.25,0,0],[0.5,0,0],[0.75,0,0],[1,0.25,0],[1,0.5,0],[1,0.75,0],[0.75,1,0],[0.5,1,0],[0.25,1,0]];labelBackgroundColor=none;rounded=1;html=1;whiteSpace=wrap;verticalAlign=middle;align=center;overflow=width;;html=1;" vertex="1" parent="Hd_F8_P-idC4PMliCgXe-69">
          <mxGeometry y="-0.2" width="101.6" height="76.2" as="geometry" />
        </mxCell>
        <UserObject label="" tags="Flowchart" id="Hd_F8_P-idC4PMliCgXe-73">
          <mxCell style="vsdxID=532;fillColor=none;gradientColor=none;strokeColor=none;spacingTop=-1;spacingBottom=-1;spacingLeft=-1;spacingRight=-1;points=[[0,0.75,0],[0,0.5,0],[0,0.25,0],[0.25,0,0],[0.5,0,0],[0.75,0,0],[1,0.25,0],[1,0.5,0],[1,0.75,0],[0.75,1,0],[0.5,1,0],[0.25,1,0]];labelBackgroundColor=none;rounded=1;html=1;whiteSpace=wrap;" vertex="1" parent="1">
            <mxGeometry x="277" y="884" width="101" height="76" as="geometry" />
          </mxCell>
        </UserObject>
        <mxCell id="Hd_F8_P-idC4PMliCgXe-74" style="vsdxID=533;fillColor=#4672c4;gradientColor=none;shape=stencil(nZCxDsIwDES/xitKk6V7KT/AF0TUEIuQVGmgwNeT9kCqOjB0s++efdKRaQZneyathpzilUfpsiOzJ60lOE6Sy0SmJdOcY+JLivfQYe9tIbWaFe5wU020VjadjvJmaPWu0jV0HN7iYwp8wlawXt8HCvsBqJewQH/mJvgPuhFcxZdhrgRlifdodOmvKywS6jftBw==);strokeColor=#939393;spacingTop=-1;spacingBottom=-1;spacingLeft=-1;spacingRight=-1;points=[[0,0.75,0],[0,0.5,0],[0,0.25,0],[0.25,0,0],[0.5,0,0],[0.75,0,0],[1,0.25,0],[1,0.5,0],[1,0.75,0],[0.75,1,0],[0.5,1,0],[0.25,1,0]];labelBackgroundColor=none;rounded=1;html=1;whiteSpace=wrap;" vertex="1" parent="Hd_F8_P-idC4PMliCgXe-73">
          <mxGeometry width="101" height="76" as="geometry" />
        </mxCell>
        <mxCell id="Hd_F8_P-idC4PMliCgXe-75" value="&lt;div style=&quot;font-size: 1px&quot;&gt;&lt;/div&gt;" style="verticalAlign=middle;align=center;overflow=width;vsdxID=545;fillColor=none;gradientColor=none;strokeColor=none;spacingTop=-1;spacingBottom=-1;spacingLeft=-1;spacingRight=-1;points=[[0,0.75,0],[0,0.5,0],[0,0.25,0],[0.25,0,0],[0.5,0,0],[0.75,0,0],[1,0.25,0],[1,0.5,0],[1,0.75,0],[0.75,1,0],[0.5,1,0],[0.25,1,0]];labelBackgroundColor=none;rounded=0;html=1;whiteSpace=wrap;" vertex="1" parent="Hd_F8_P-idC4PMliCgXe-73">
          <mxGeometry x="5" y="5" width="14" height="14" as="geometry" />
        </mxCell>
        <mxCell id="Hd_F8_P-idC4PMliCgXe-76" value="&lt;div style=&quot;font-size: 1px&quot;&gt;&lt;font style=&quot;font-size:11.29px;font-family:Calibri;color:#feffff;direction:ltr;letter-spacing:0px;line-height:120%;opacity:1&quot;&gt;Add Surveyors&lt;br/&gt;&lt;/font&gt;&lt;/div&gt;" style="text;vsdxID=532;fillColor=none;gradientColor=none;strokeColor=none;spacingTop=-1;spacingBottom=-1;spacingLeft=-1;spacingRight=-1;points=[[0,0.75,0],[0,0.5,0],[0,0.25,0],[0.25,0,0],[0.5,0,0],[0.75,0,0],[1,0.25,0],[1,0.5,0],[1,0.75,0],[0.75,1,0],[0.5,1,0],[0.25,1,0]];labelBackgroundColor=none;rounded=1;html=1;whiteSpace=wrap;verticalAlign=middle;align=center;overflow=width;;html=1;" vertex="1" parent="Hd_F8_P-idC4PMliCgXe-73">
          <mxGeometry y="-0.2" width="101.6" height="76.2" as="geometry" />
        </mxCell>
        <UserObject label="" tags="Flowchart" id="Hd_F8_P-idC4PMliCgXe-77">
          <mxCell style="vsdxID=555;fillColor=none;gradientColor=none;strokeColor=none;spacingTop=-1;spacingBottom=-1;spacingLeft=-1;spacingRight=-1;points=[[0,0.75,0],[0,0.5,0],[0,0.25,0],[0.25,0,0],[0.5,0,0],[0.75,0,0],[1,0.25,0],[1,0.5,0],[1,0.75,0],[0.75,1,0],[0.5,1,0],[0.25,1,0]];labelBackgroundColor=none;rounded=1;html=1;whiteSpace=wrap;" vertex="1" parent="1">
            <mxGeometry x="277" y="997" width="101" height="76" as="geometry" />
          </mxCell>
        </UserObject>
        <mxCell id="Hd_F8_P-idC4PMliCgXe-78" style="vsdxID=556;fillColor=#4672c4;gradientColor=none;shape=stencil(nZCxDsIwDES/xitKk6V7KT/AF0TUEIuQVGmgwNeT9kCqOjB0s++efdKRaQZneyathpzilUfpsiOzJ60lOE6Sy0SmJdOcY+JLivfQYe9tIbWaFe5wU020VjadjvJmaPWu0jV0HN7iYwp8wlawXt8HCvsBqJewQH/mJvgPuhFcxZdhrgRlifdodOmvKywS6jftBw==);strokeColor=#939393;spacingTop=-1;spacingBottom=-1;spacingLeft=-1;spacingRight=-1;points=[[0,0.75,0],[0,0.5,0],[0,0.25,0],[0.25,0,0],[0.5,0,0],[0.75,0,0],[1,0.25,0],[1,0.5,0],[1,0.75,0],[0.75,1,0],[0.5,1,0],[0.25,1,0]];labelBackgroundColor=none;rounded=1;html=1;whiteSpace=wrap;" vertex="1" parent="Hd_F8_P-idC4PMliCgXe-77">
          <mxGeometry width="101" height="76" as="geometry" />
        </mxCell>
        <mxCell id="Hd_F8_P-idC4PMliCgXe-79" value="&lt;div style=&quot;font-size: 1px&quot;&gt;&lt;/div&gt;" style="verticalAlign=middle;align=center;overflow=width;vsdxID=568;fillColor=none;gradientColor=none;strokeColor=none;spacingTop=-1;spacingBottom=-1;spacingLeft=-1;spacingRight=-1;points=[[0,0.75,0],[0,0.5,0],[0,0.25,0],[0.25,0,0],[0.5,0,0],[0.75,0,0],[1,0.25,0],[1,0.5,0],[1,0.75,0],[0.75,1,0],[0.5,1,0],[0.25,1,0]];labelBackgroundColor=none;rounded=0;html=1;whiteSpace=wrap;" vertex="1" parent="Hd_F8_P-idC4PMliCgXe-77">
          <mxGeometry x="5" y="5" width="14" height="14" as="geometry" />
        </mxCell>
        <mxCell id="Hd_F8_P-idC4PMliCgXe-80" value="&lt;div style=&quot;font-size: 1px&quot;&gt;&lt;font style=&quot;font-size:11.29px;font-family:Calibri;color:#feffff;direction:ltr;letter-spacing:0px;line-height:120%;opacity:1&quot;&gt;Add Sampling personnel&lt;br/&gt;&lt;/font&gt;&lt;/div&gt;" style="text;vsdxID=555;fillColor=none;gradientColor=none;strokeColor=none;spacingTop=-1;spacingBottom=-1;spacingLeft=-1;spacingRight=-1;points=[[0,0.75,0],[0,0.5,0],[0,0.25,0],[0.25,0,0],[0.5,0,0],[0.75,0,0],[1,0.25,0],[1,0.5,0],[1,0.75,0],[0.75,1,0],[0.5,1,0],[0.25,1,0]];labelBackgroundColor=none;rounded=1;html=1;whiteSpace=wrap;verticalAlign=middle;align=center;overflow=width;;html=1;" vertex="1" parent="Hd_F8_P-idC4PMliCgXe-77">
          <mxGeometry y="-0.2" width="101.6" height="76.2" as="geometry" />
        </mxCell>
        <UserObject label="" tags="Flowchart" id="Hd_F8_P-idC4PMliCgXe-81">
          <mxCell style="vsdxID=581;fillColor=none;gradientColor=none;strokeColor=none;spacingTop=-1;spacingBottom=-1;spacingLeft=-1;spacingRight=-1;points=[[0,0.75,0],[0,0.5,0],[0,0.25,0],[0.25,0,0],[0.5,0,0],[0.75,0,0],[1,0.25,0],[1,0.5,0],[1,0.75,0],[0.75,1,0],[0.5,1,0],[0.25,1,0]];labelBackgroundColor=none;rounded=1;html=1;whiteSpace=wrap;" vertex="1" parent="1">
            <mxGeometry x="581" y="963" width="101" height="76" as="geometry" />
          </mxCell>
        </UserObject>
        <mxCell id="Hd_F8_P-idC4PMliCgXe-82" style="vsdxID=582;fillColor=#4672c4;gradientColor=none;shape=stencil(nZCxDsIwDES/xitKk6V7KT/AF0TUEIuQVGmgwNeT9kCqOjB0s++efdKRaQZneyathpzilUfpsiOzJ60lOE6Sy0SmJdOcY+JLivfQYe9tIbWaFe5wU020VjadjvJmaPWu0jV0HN7iYwp8wlawXt8HCvsBqJewQH/mJvgPuhFcxZdhrgRlifdodOmvKywS6jftBw==);strokeColor=#939393;spacingTop=-1;spacingBottom=-1;spacingLeft=-1;spacingRight=-1;points=[[0,0.75,0],[0,0.5,0],[0,0.25,0],[0.25,0,0],[0.5,0,0],[0.75,0,0],[1,0.25,0],[1,0.5,0],[1,0.75,0],[0.75,1,0],[0.5,1,0],[0.25,1,0]];labelBackgroundColor=none;rounded=1;html=1;whiteSpace=wrap;" vertex="1" parent="Hd_F8_P-idC4PMliCgXe-81">
          <mxGeometry width="101" height="76" as="geometry" />
        </mxCell>
        <mxCell id="Hd_F8_P-idC4PMliCgXe-83" value="&lt;div style=&quot;font-size: 1px&quot;&gt;&lt;/div&gt;" style="verticalAlign=middle;align=center;overflow=width;vsdxID=594;fillColor=none;gradientColor=none;strokeColor=none;spacingTop=-1;spacingBottom=-1;spacingLeft=-1;spacingRight=-1;points=[[0,0.75,0],[0,0.5,0],[0,0.25,0],[0.25,0,0],[0.5,0,0],[0.75,0,0],[1,0.25,0],[1,0.5,0],[1,0.75,0],[0.75,1,0],[0.5,1,0],[0.25,1,0]];labelBackgroundColor=none;rounded=0;html=1;whiteSpace=wrap;" vertex="1" parent="Hd_F8_P-idC4PMliCgXe-81">
          <mxGeometry x="5" y="5" width="14" height="14" as="geometry" />
        </mxCell>
        <mxCell id="Hd_F8_P-idC4PMliCgXe-84" value="&lt;div style=&quot;font-size: 1px&quot;&gt;&lt;p style=&quot;text-align:center;margin-left:0;margin-right:0;margin-top:0px;margin-bottom:0px;text-indent:0;vertical-align:middle;direction:ltr;&quot;&gt;&lt;font style=&quot;font-size:11.29px;font-family:Calibri;color:#feffff;direction:ltr;letter-spacing:0px;line-height:120%;opacity:1&quot;&gt;Create Physical record&lt;br/&gt;&lt;/font&gt;&lt;/p&gt;&lt;/div&gt;" style="text;vsdxID=581;fillColor=none;gradientColor=none;strokeColor=none;spacingTop=-1;spacingBottom=-1;spacingLeft=-1;spacingRight=-1;points=[[0,0.75,0],[0,0.5,0],[0,0.25,0],[0.25,0,0],[0.5,0,0],[0.75,0,0],[1,0.25,0],[1,0.5,0],[1,0.75,0],[0.75,1,0],[0.5,1,0],[0.25,1,0]];labelBackgroundColor=none;rounded=1;html=1;whiteSpace=wrap;verticalAlign=middle;align=center;overflow=width;;html=1;" vertex="1" parent="Hd_F8_P-idC4PMliCgXe-81">
          <mxGeometry y="-0.2" width="101.6" height="76.2" as="geometry" />
        </mxCell>
        <UserObject label="" tags="Connector" id="Hd_F8_P-idC4PMliCgXe-85">
          <mxCell style="vsdxID=580;edgeStyle=none;dashed=1;dashPattern=2.00 2.00;startArrow=none;endArrow=oval;startSize=5;endSize=5;strokeColor=#c00000;spacingTop=0;spacingBottom=0;spacingLeft=0;spacingRight=0;verticalAlign=middle;html=1;labelBackgroundColor=#ffffff;rounded=0;exitX=0.49504950495049505;exitY=1;exitDx=0;exitDy=0;exitPerimeter=0;entryX=0.49504950495049505;entryY=0;entryDx=0;entryDy=0;entryPerimeter=0;strokeWidth=2;" edge="1" parent="1" source="Hd_F8_P-idC4PMliCgXe-73" target="Hd_F8_P-idC4PMliCgXe-78">
            <mxGeometry relative="1" as="geometry">
              <mxPoint x="12" y="-1" as="offset" />
              <Array as="points" />
            </mxGeometry>
          </mxCell>
        </UserObject>
        <UserObject label="" tags="Connector" id="Hd_F8_P-idC4PMliCgXe-86">
          <mxCell style="vsdxID=579;edgeStyle=none;startArrow=none;endArrow=block;startSize=5;endSize=5;strokeColor=#4672c4;spacingTop=0;spacingBottom=0;spacingLeft=0;spacingRight=0;verticalAlign=middle;html=1;labelBackgroundColor=#ffffff;rounded=0;exitX=0;exitY=0.5;exitDx=0;exitDy=0;exitPerimeter=0;entryX=1;entryY=0.5;entryDx=0;entryDy=0;entryPerimeter=0;strokeWidth=2;" edge="1" parent="1" source="Hd_F8_P-idC4PMliCgXe-40" target="Hd_F8_P-idC4PMliCgXe-78">
            <mxGeometry relative="1" as="geometry">
              <mxPoint x="-1" as="offset" />
              <Array as="points" />
            </mxGeometry>
          </mxCell>
        </UserObject>
        <UserObject label="" tags="Connector" id="Hd_F8_P-idC4PMliCgXe-87">
          <mxCell style="vsdxID=578;edgeStyle=none;startArrow=none;endArrow=block;startSize=5;endSize=5;strokeColor=#4672c4;spacingTop=0;spacingBottom=0;spacingLeft=0;spacingRight=0;verticalAlign=middle;html=1;labelBackgroundColor=#ffffff;rounded=0;exitX=0;exitY=0.5;exitDx=0;exitDy=0;exitPerimeter=0;entryX=1;entryY=0.5;entryDx=0;entryDy=0;entryPerimeter=0;strokeWidth=2;" edge="1" parent="1" source="Hd_F8_P-idC4PMliCgXe-28" target="Hd_F8_P-idC4PMliCgXe-74">
            <mxGeometry relative="1" as="geometry">
              <mxPoint x="-1" as="offset" />
              <Array as="points" />
            </mxGeometry>
          </mxCell>
        </UserObject>
        <UserObject label="" tags="Connector" id="Hd_F8_P-idC4PMliCgXe-88">
          <mxCell style="vsdxID=527;edgeStyle=none;startArrow=none;endArrow=block;startSize=5;endSize=5;strokeColor=#4672c4;spacingTop=0;spacingBottom=0;spacingLeft=0;spacingRight=0;verticalAlign=middle;html=1;labelBackgroundColor=#ffffff;rounded=0;exitX=0.504950495049505;exitY=1;exitDx=0;exitDy=0;exitPerimeter=0;entryX=0.504950495049505;entryY=0;entryDx=0;entryDy=0;entryPerimeter=0;strokeWidth=2;" edge="1" parent="1" source="Hd_F8_P-idC4PMliCgXe-56" target="Hd_F8_P-idC4PMliCgXe-61">
            <mxGeometry relative="1" as="geometry">
              <mxPoint x="12" y="-1" as="offset" />
              <Array as="points" />
            </mxGeometry>
          </mxCell>
        </UserObject>
        <UserObject label="" tags="Connector" id="Hd_F8_P-idC4PMliCgXe-89">
          <mxCell style="vsdxID=526;edgeStyle=none;startArrow=none;endArrow=block;startSize=5;endSize=5;strokeColor=#4672c4;spacingTop=0;spacingBottom=0;spacingLeft=0;spacingRight=0;verticalAlign=middle;html=1;labelBackgroundColor=#ffffff;rounded=0;exitX=0.504950495049505;exitY=1.013157894736842;exitDx=0;exitDy=0;exitPerimeter=0;entryX=0.504950495049505;entryY=0;entryDx=0;entryDy=0;entryPerimeter=0;strokeWidth=2;" edge="1" parent="1" source="Hd_F8_P-idC4PMliCgXe-44" target="Hd_F8_P-idC4PMliCgXe-57">
            <mxGeometry relative="1" as="geometry">
              <mxPoint x="12" y="-1" as="offset" />
              <Array as="points" />
            </mxGeometry>
          </mxCell>
        </UserObject>
        <UserObject label="" tags="Connector" id="Hd_F8_P-idC4PMliCgXe-90">
          <mxCell style="vsdxID=525;edgeStyle=none;startArrow=none;endArrow=block;startSize=5;endSize=5;strokeColor=#4672c4;spacingTop=0;spacingBottom=0;spacingLeft=0;spacingRight=0;verticalAlign=middle;html=1;labelBackgroundColor=#ffffff;rounded=0;exitX=1.00990099009901;exitY=0.5;exitDx=0;exitDy=0;exitPerimeter=0;entryX=0;entryY=0.5;entryDx=0;entryDy=0;entryPerimeter=0;strokeWidth=2;" edge="1" parent="1" source="Hd_F8_P-idC4PMliCgXe-48" target="Hd_F8_P-idC4PMliCgXe-53">
            <mxGeometry relative="1" as="geometry">
              <mxPoint x="-1" as="offset" />
              <Array as="points" />
            </mxGeometry>
          </mxCell>
        </UserObject>
        <UserObject label="" tags="Connector" id="Hd_F8_P-idC4PMliCgXe-91">
          <mxCell style="vsdxID=524;edgeStyle=none;startArrow=none;endArrow=block;startSize=5;endSize=5;strokeColor=#4672c4;spacingTop=0;spacingBottom=0;spacingLeft=0;spacingRight=0;verticalAlign=middle;html=1;labelBackgroundColor=#ffffff;rounded=0;exitX=1.00990099009901;exitY=0.5;exitDx=0;exitDy=0;exitPerimeter=0;entryX=0;entryY=0.5;entryDx=0;entryDy=0;entryPerimeter=0;strokeWidth=2;" edge="1" parent="1" source="Hd_F8_P-idC4PMliCgXe-44" target="Hd_F8_P-idC4PMliCgXe-49">
            <mxGeometry relative="1" as="geometry">
              <mxPoint x="-1" as="offset" />
              <Array as="points" />
            </mxGeometry>
          </mxCell>
        </UserObject>
        <UserObject label="" tags="Connector" id="Hd_F8_P-idC4PMliCgXe-92">
          <mxCell style="vsdxID=523;edgeStyle=none;startArrow=none;endArrow=block;startSize=5;endSize=5;strokeColor=#4672c4;spacingTop=0;spacingBottom=0;spacingLeft=0;spacingRight=0;verticalAlign=middle;html=1;labelBackgroundColor=#ffffff;rounded=0;exitX=0.504950495049505;exitY=1;exitDx=0;exitDy=0;exitPerimeter=0;entryX=0.504950495049505;entryY=0;entryDx=0;entryDy=0;entryPerimeter=0;strokeWidth=2;" edge="1" parent="1" source="Hd_F8_P-idC4PMliCgXe-40" target="Hd_F8_P-idC4PMliCgXe-45">
            <mxGeometry relative="1" as="geometry">
              <mxPoint x="12" as="offset" />
              <Array as="points" />
            </mxGeometry>
          </mxCell>
        </UserObject>
        <UserObject label="" tags="Connector" id="Hd_F8_P-idC4PMliCgXe-93">
          <mxCell style="vsdxID=521;edgeStyle=none;startArrow=none;endArrow=block;startSize=5;endSize=5;strokeColor=#4672c4;spacingTop=0;spacingBottom=0;spacingLeft=0;spacingRight=0;verticalAlign=middle;html=1;labelBackgroundColor=#ffffff;rounded=0;exitX=0.504950495049505;exitY=1;exitDx=0;exitDy=0;exitPerimeter=0;entryX=0.504950495049505;entryY=0;entryDx=0;entryDy=0;entryPerimeter=0;strokeWidth=2;" edge="1" parent="1" source="Hd_F8_P-idC4PMliCgXe-28" target="Hd_F8_P-idC4PMliCgXe-41">
            <mxGeometry relative="1" as="geometry">
              <mxPoint x="12" y="-1" as="offset" />
              <Array as="points" />
            </mxGeometry>
          </mxCell>
        </UserObject>
        <UserObject label="" tags="Connector" id="Hd_F8_P-idC4PMliCgXe-94">
          <mxCell style="vsdxID=519;edgeStyle=none;startArrow=none;endArrow=block;startSize=5;endSize=5;strokeColor=#4672c4;spacingTop=0;spacingBottom=0;spacingLeft=0;spacingRight=0;verticalAlign=middle;html=1;labelBackgroundColor=#ffffff;rounded=0;exitX=0.504950495049505;exitY=1.013157894736842;exitDx=0;exitDy=0;exitPerimeter=0;entryX=0.504950495049505;entryY=0;entryDx=0;entryDy=0;entryPerimeter=0;strokeWidth=2;" edge="1" parent="1" source="Hd_F8_P-idC4PMliCgXe-24" target="Hd_F8_P-idC4PMliCgXe-29">
            <mxGeometry relative="1" as="geometry">
              <mxPoint x="12" y="-1" as="offset" />
              <Array as="points" />
            </mxGeometry>
          </mxCell>
        </UserObject>
        <UserObject label="" tags="Connector" id="Hd_F8_P-idC4PMliCgXe-95">
          <mxCell style="vsdxID=518;edgeStyle=none;startArrow=none;endArrow=block;startSize=5;endSize=5;strokeColor=#4672c4;spacingTop=0;spacingBottom=0;spacingLeft=0;spacingRight=0;verticalAlign=middle;html=1;labelBackgroundColor=#ffffff;rounded=0;exitX=1;exitY=0.5;exitDx=0;exitDy=0;exitPerimeter=0;entryX=0;entryY=0.5;entryDx=0;entryDy=0;entryPerimeter=0;strokeWidth=2;" edge="1" parent="1" source="Hd_F8_P-idC4PMliCgXe-69" target="Hd_F8_P-idC4PMliCgXe-25">
            <mxGeometry relative="1" as="geometry">
              <mxPoint as="offset" />
              <Array as="points" />
            </mxGeometry>
          </mxCell>
        </UserObject>
        <UserObject label="&lt;div style=&quot;font-size: 1px&quot;&gt;&lt;font style=&quot;font-size:11.29px;font-family:Calibri;color:#345593;direction:ltr;letter-spacing:0px;line-height:120%;opacity:1&quot;&gt;No&lt;br/&gt;&lt;/font&gt;&lt;/div&gt;" tags="Connector" id="Hd_F8_P-idC4PMliCgXe-96">
          <mxCell style="vsdxID=515;edgeStyle=none;startArrow=none;endArrow=block;startSize=5;endSize=5;strokeColor=#4672c4;spacingTop=0;spacingBottom=0;spacingLeft=0;spacingRight=0;verticalAlign=middle;html=1;labelBackgroundColor=#ffffff;rounded=0;align=center;overflow=width;exitX=0.5027027027027027;exitY=1;exitDx=0;exitDy=0;exitPerimeter=0;entryX=0.504950495049505;entryY=0;entryDx=0;entryDy=0;entryPerimeter=0;strokeWidth=2;" edge="1" parent="1" source="Hd_F8_P-idC4PMliCgXe-13" target="Hd_F8_P-idC4PMliCgXe-24">
            <mxGeometry relative="1" as="geometry">
              <mxPoint x="13" y="-11" as="offset" />
              <Array as="points" />
            </mxGeometry>
          </mxCell>
        </UserObject>
        <UserObject label="&lt;div style=&quot;font-size: 1px&quot;&gt;&lt;font style=&quot;font-size:11.29px;font-family:Calibri;color:#345593;direction:ltr;letter-spacing:0px;line-height:120%;opacity:1&quot;&gt;Yes&lt;br/&gt;&lt;/font&gt;&lt;/div&gt;" tags="Connector" id="Hd_F8_P-idC4PMliCgXe-97">
          <mxCell style="vsdxID=489;edgeStyle=none;startArrow=none;endArrow=block;startSize=5;endSize=5;strokeColor=#4672c4;spacingTop=0;spacingBottom=0;spacingLeft=0;spacingRight=0;verticalAlign=middle;html=1;labelBackgroundColor=#ffffff;rounded=0;align=center;overflow=width;exitX=0;exitY=0.49523809523809526;exitDx=0;exitDy=0;exitPerimeter=0;entryX=1.0073529411764706;entryY=0.5;entryDx=0;entryDy=0;entryPerimeter=0;strokeWidth=2;" edge="1" parent="1" source="Hd_F8_P-idC4PMliCgXe-13" target="Hd_F8_P-idC4PMliCgXe-67">
            <mxGeometry relative="1" as="geometry">
              <mxPoint x="7" y="-1" as="offset" />
              <Array as="points" />
            </mxGeometry>
          </mxCell>
        </UserObject>
        <UserObject label="&lt;div style=&quot;font-size: 1px&quot;&gt;&lt;font style=&quot;font-size:11.29px;font-family:Calibri;color:#345593;direction:ltr;letter-spacing:0px;line-height:120%;opacity:1&quot;&gt;Yes&lt;br/&gt;&lt;/font&gt;&lt;/div&gt;" tags="Connector" id="Hd_F8_P-idC4PMliCgXe-98">
          <mxCell style="vsdxID=425;edgeStyle=none;startArrow=none;endArrow=block;startSize=5;endSize=5;strokeColor=#4672c4;spacingTop=0;spacingBottom=0;spacingLeft=0;spacingRight=0;verticalAlign=middle;html=1;labelBackgroundColor=#ffffff;rounded=0;align=center;overflow=width;exitX=1.0073529411764706;exitY=0.5061728395061729;exitDx=0;exitDy=0;exitPerimeter=0;entryX=0;entryY=0.5131578947368421;entryDx=0;entryDy=0;entryPerimeter=0;strokeWidth=2;" edge="1" parent="1" source="Hd_F8_P-idC4PMliCgXe-10" target="Hd_F8_P-idC4PMliCgXe-21">
            <mxGeometry relative="1" as="geometry">
              <mxPoint x="-14" y="-1" as="offset" />
              <Array as="points" />
            </mxGeometry>
          </mxCell>
        </UserObject>
        <UserObject label="&lt;div style=&quot;font-size: 1px&quot;&gt;&lt;font style=&quot;font-size:11.29px;font-family:Calibri;color:#345593;direction:ltr;letter-spacing:0px;line-height:120%;opacity:1&quot;&gt;No&lt;br/&gt;&lt;/font&gt;&lt;/div&gt;" tags="Connector" id="Hd_F8_P-idC4PMliCgXe-99">
          <mxCell style="vsdxID=423;edgeStyle=none;startArrow=none;endArrow=block;startSize=5;endSize=5;strokeColor=#4672c4;spacingTop=0;spacingBottom=0;spacingLeft=0;spacingRight=0;verticalAlign=middle;html=1;labelBackgroundColor=#ffffff;rounded=0;align=center;overflow=width;exitX=0.5;exitY=1;exitDx=0;exitDy=0;exitPerimeter=0;entryX=0.5027027027027027;entryY=0;entryDx=0;entryDy=0;entryPerimeter=0;strokeWidth=2;" edge="1" parent="1" source="Hd_F8_P-idC4PMliCgXe-10" target="Hd_F8_P-idC4PMliCgXe-14">
            <mxGeometry relative="1" as="geometry">
              <mxPoint x="13" y="-9" as="offset" />
              <Array as="points" />
            </mxGeometry>
          </mxCell>
        </UserObject>
        <UserObject label="&lt;div style=&quot;font-size: 1px&quot;&gt;&lt;font style=&quot;font-size:11.29px;font-family:Calibri;color:#345593;direction:ltr;letter-spacing:0px;line-height:120%;opacity:1&quot;&gt;Yes&lt;br/&gt;&lt;/font&gt;&lt;/div&gt;" tags="Connector" id="Hd_F8_P-idC4PMliCgXe-100">
          <mxCell style="vsdxID=418;edgeStyle=none;startArrow=none;endArrow=block;startSize=5;endSize=5;strokeColor=#4672c4;spacingTop=0;spacingBottom=0;spacingLeft=0;spacingRight=0;verticalAlign=middle;html=1;labelBackgroundColor=#ffffff;rounded=0;align=center;overflow=width;exitX=1.0073529411764706;exitY=0.5061728395061729;exitDx=0;exitDy=0;exitPerimeter=0;entryX=0;entryY=0.5;entryDx=0;entryDy=0;entryPerimeter=0;strokeWidth=2;" edge="1" parent="1" source="Hd_F8_P-idC4PMliCgXe-4" target="Hd_F8_P-idC4PMliCgXe-17">
            <mxGeometry relative="1" as="geometry">
              <mxPoint x="-17" y="-2" as="offset" />
              <Array as="points" />
            </mxGeometry>
          </mxCell>
        </UserObject>
        <UserObject label="" tags="Connector" id="Hd_F8_P-idC4PMliCgXe-101">
          <mxCell style="vsdxID=412;edgeStyle=none;startArrow=none;endArrow=block;startSize=5;endSize=5;strokeColor=#4672c4;spacingTop=0;spacingBottom=0;spacingLeft=0;spacingRight=0;verticalAlign=middle;html=1;labelBackgroundColor=#ffffff;rounded=0;exitX=0.5106382978723404;exitY=1.0212765957446808;exitDx=0;exitDy=0;exitPerimeter=0;entryX=0.5;entryY=0;entryDx=0;entryDy=0;entryPerimeter=0;strokeWidth=2;" edge="1" parent="1" source="Hd_F8_P-idC4PMliCgXe-1" target="Hd_F8_P-idC4PMliCgXe-8">
            <mxGeometry relative="1" as="geometry">
              <mxPoint x="12" as="offset" />
              <Array as="points" />
            </mxGeometry>
          </mxCell>
        </UserObject>
        <UserObject label="&lt;div style=&quot;font-size: 1px&quot;&gt;&lt;font style=&quot;font-size:11.29px;font-family:Calibri;color:#345593;direction:ltr;letter-spacing:0px;line-height:120%;opacity:1&quot;&gt;Yes&lt;br/&gt;&lt;/font&gt;&lt;/div&gt;" tags="Connector" id="Hd_F8_P-idC4PMliCgXe-102">
          <mxCell style="vsdxID=413;edgeStyle=none;startArrow=none;endArrow=block;startSize=5;endSize=5;strokeColor=#4672c4;spacingTop=0;spacingBottom=0;spacingLeft=0;spacingRight=0;verticalAlign=middle;html=1;labelBackgroundColor=#ffffff;rounded=0;align=center;overflow=width;exitX=1.0073529411764706;exitY=0.5061728395061729;exitDx=0;exitDy=0;exitPerimeter=0;entryX=0;entryY=0.5;entryDx=0;entryDy=0;entryPerimeter=0;strokeWidth=2;" edge="1" parent="1" source="Hd_F8_P-idC4PMliCgXe-7" target="Hd_F8_P-idC4PMliCgXe-64">
            <mxGeometry relative="1" as="geometry">
              <mxPoint x="-26" y="-3" as="offset" />
              <Array as="points">
                <mxPoint x="559.05" y="244" />
                <mxPoint x="559.05" y="244.01" />
              </Array>
            </mxGeometry>
          </mxCell>
        </UserObject>
        <UserObject label="&lt;div style=&quot;font-size: 1px&quot;&gt;&lt;font style=&quot;font-size:11.29px;font-family:Calibri;color:#345593;direction:ltr;letter-spacing:0px;line-height:120%;opacity:1&quot;&gt;No&lt;br/&gt;&lt;/font&gt;&lt;/div&gt;" tags="Connector" id="Hd_F8_P-idC4PMliCgXe-103">
          <mxCell style="vsdxID=417;edgeStyle=none;startArrow=none;endArrow=block;startSize=5;endSize=5;strokeColor=#4672c4;spacingTop=0;spacingBottom=0;spacingLeft=0;spacingRight=0;verticalAlign=middle;html=1;labelBackgroundColor=#ffffff;rounded=0;align=center;overflow=width;exitX=0.5;exitY=1.0123456790123457;exitDx=0;exitDy=0;exitPerimeter=0;entryX=0.5;entryY=0;entryDx=0;entryDy=0;entryPerimeter=0;strokeWidth=2;" edge="1" parent="1" source="Hd_F8_P-idC4PMliCgXe-7" target="Hd_F8_P-idC4PMliCgXe-4">
            <mxGeometry relative="1" as="geometry">
              <mxPoint x="13" y="-9" as="offset" />
              <Array as="points" />
            </mxGeometry>
          </mxCell>
        </UserObject>
        <UserObject label="" tags="Connector" id="Hd_F8_P-idC4PMliCgXe-104">
          <mxCell style="vsdxID=606;edgeStyle=none;startArrow=none;endArrow=block;startSize=5;endSize=5;strokeColor=#4672c4;spacingTop=0;spacingBottom=0;spacingLeft=0;spacingRight=0;verticalAlign=middle;html=1;labelBackgroundColor=#ffffff;rounded=0;exitX=1.00990099009901;exitY=0.5;exitDx=0;exitDy=0;exitPerimeter=0;entryX=0;entryY=0.5;entryDx=0;entryDy=0;entryPerimeter=0;strokeWidth=2;" edge="1" parent="1" source="Hd_F8_P-idC4PMliCgXe-40" target="Hd_F8_P-idC4PMliCgXe-81">
            <mxGeometry relative="1" as="geometry">
              <mxPoint as="offset" />
              <Array as="points">
                <mxPoint x="541.05" y="1035" />
                <mxPoint x="541.05" y="1000.28" />
              </Array>
            </mxGeometry>
          </mxCell>
        </UserObject>
        <UserObject label="" tags="Connector" id="Hd_F8_P-idC4PMliCgXe-105">
          <mxCell style="vsdxID=605;edgeStyle=none;startArrow=none;endArrow=block;startSize=5;endSize=5;strokeColor=#4672c4;spacingTop=0;spacingBottom=0;spacingLeft=0;spacingRight=0;verticalAlign=middle;html=1;labelBackgroundColor=#ffffff;rounded=0;exitX=1.00990099009901;exitY=0.5;exitDx=0;exitDy=0;exitPerimeter=0;entryX=0;entryY=0.5;entryDx=0;entryDy=0;entryPerimeter=0;strokeWidth=2;" edge="1" parent="1" source="Hd_F8_P-idC4PMliCgXe-40" target="Hd_F8_P-idC4PMliCgXe-36">
            <mxGeometry relative="1" as="geometry">
              <mxPoint as="offset" />
              <Array as="points">
                <mxPoint x="541.05" y="1035" />
                <mxPoint x="541.05" y="1076.47" />
              </Array>
            </mxGeometry>
          </mxCell>
        </UserObject>
        <UserObject label="" tags="Connector" id="Hd_F8_P-idC4PMliCgXe-106">
          <mxCell style="vsdxID=531;edgeStyle=none;dashed=1;dashPattern=2.00 2.00;startArrow=none;endArrow=oval;startSize=5;endSize=5;strokeColor=#c00000;spacingTop=0;spacingBottom=0;spacingLeft=0;spacingRight=0;verticalAlign=middle;html=1;labelBackgroundColor=#ffffff;rounded=0;exitX=1;exitY=0.5;exitDx=0;exitDy=0;exitPerimeter=0;entryX=1.00990099009901;entryY=0.75;entryDx=0;entryDy=0;entryPerimeter=0;strokeWidth=2;" edge="1" parent="1" source="Hd_F8_P-idC4PMliCgXe-64" target="Hd_F8_P-idC4PMliCgXe-28">
            <mxGeometry relative="1" as="geometry">
              <mxPoint y="-1" as="offset" />
              <Array as="points">
                <mxPoint x="733.83" y="244" />
                <mxPoint x="733.83" y="940.98" />
              </Array>
            </mxGeometry>
          </mxCell>
        </UserObject>
        <UserObject label="" tags="Connector" id="Hd_F8_P-idC4PMliCgXe-107">
          <mxCell style="vsdxID=530;edgeStyle=none;dashed=1;dashPattern=2.00 2.00;startArrow=none;endArrow=oval;startSize=5;endSize=5;strokeColor=#c00000;spacingTop=0;spacingBottom=0;spacingLeft=0;spacingRight=0;verticalAlign=middle;html=1;labelBackgroundColor=#ffffff;rounded=0;exitX=1;exitY=0.5;exitDx=0;exitDy=0;exitPerimeter=0;entryX=1.00990099009901;entryY=0.5;entryDx=0;entryDy=0;entryPerimeter=0;strokeWidth=2;" edge="1" parent="1" source="Hd_F8_P-idC4PMliCgXe-16" target="Hd_F8_P-idC4PMliCgXe-28">
            <mxGeometry relative="1" as="geometry">
              <mxPoint y="-1" as="offset" />
              <Array as="points">
                <mxPoint x="714.05" y="380" />
                <mxPoint x="714.05" y="922.15" />
              </Array>
            </mxGeometry>
          </mxCell>
        </UserObject>
        <UserObject label="" tags="Connector" id="Hd_F8_P-idC4PMliCgXe-108">
          <mxCell style="vsdxID=529;edgeStyle=none;dashed=1;dashPattern=2.00 2.00;startArrow=none;endArrow=oval;startSize=5;endSize=5;strokeColor=#c00000;spacingTop=0;spacingBottom=0;spacingLeft=0;spacingRight=0;verticalAlign=middle;html=1;labelBackgroundColor=#ffffff;rounded=0;exitX=0.7524752475247525;exitY=1.013157894736842;exitDx=0;exitDy=0;exitPerimeter=0;entryX=1.00990099009901;entryY=0.25;entryDx=0;entryDy=0;entryPerimeter=0;strokeWidth=2;" edge="1" parent="1" source="Hd_F8_P-idC4PMliCgXe-20" target="Hd_F8_P-idC4PMliCgXe-28">
            <mxGeometry relative="1" as="geometry">
              <mxPoint y="-1" as="offset" />
              <Array as="points">
                <mxPoint x="670" y="903.22" />
              </Array>
            </mxGeometry>
          </mxCell>
        </UserObject>
        <UserObject label="&lt;div style=&quot;font-size: 1px&quot;&gt;&lt;/div&gt;" tags="Connector" id="Hd_F8_P-idC4PMliCgXe-109">
          <mxCell style="vsdxID=528;edgeStyle=none;dashed=1;dashPattern=2.00 2.00;startArrow=none;endArrow=oval;startSize=5;endSize=5;strokeColor=#c00000;spacingTop=0;spacingBottom=0;spacingLeft=0;spacingRight=0;verticalAlign=middle;html=1;labelBackgroundColor=#ffffff;rounded=0;align=center;overflow=width;exitX=0.49504950495049505;exitY=1;exitDx=0;exitDy=0;exitPerimeter=0;entryX=0;entryY=0.5;entryDx=0;entryDy=0;entryPerimeter=0;strokeWidth=2;" edge="1" parent="1" source="Hd_F8_P-idC4PMliCgXe-32" target="Hd_F8_P-idC4PMliCgXe-44">
            <mxGeometry relative="1" as="geometry">
              <mxPoint as="offset" />
              <Array as="points">
                <mxPoint x="154" y="1188.41" />
              </Array>
            </mxGeometry>
          </mxCell>
        </UserObject>
        <UserObject label="" tags="Connector" id="Hd_F8_P-idC4PMliCgXe-110">
          <mxCell style="vsdxID=520;edgeStyle=none;startArrow=none;endArrow=block;startSize=5;endSize=5;strokeColor=#4672c4;spacingTop=0;spacingBottom=0;spacingLeft=0;spacingRight=0;verticalAlign=middle;html=1;labelBackgroundColor=#ffffff;rounded=0;exitX=0.504950495049505;exitY=1.013157894736842;exitDx=0;exitDy=0;exitPerimeter=0;entryX=0.49504950495049505;entryY=0;entryDx=0;entryDy=0;entryPerimeter=0;strokeWidth=2;" edge="1" parent="1" source="Hd_F8_P-idC4PMliCgXe-24" target="Hd_F8_P-idC4PMliCgXe-32">
            <mxGeometry relative="1" as="geometry">
              <mxPoint as="offset" />
              <Array as="points">
                <mxPoint x="471" y="866.05" />
                <mxPoint x="154.27" y="866.05" />
              </Array>
            </mxGeometry>
          </mxCell>
        </UserObject>
        <UserObject label="&lt;div style=&quot;font-size: 1px&quot;&gt;&lt;font style=&quot;font-size:11.29px;font-family:Calibri;color:#345593;direction:ltr;letter-spacing:0px;line-height:120%;opacity:1&quot;&gt;Yes&lt;br/&gt;&lt;/font&gt;&lt;/div&gt;" tags="Connector" id="Hd_F8_P-idC4PMliCgXe-111">
          <mxCell style="vsdxID=516;edgeStyle=none;startArrow=none;endArrow=block;startSize=5;endSize=5;strokeColor=#4672c4;spacingTop=0;spacingBottom=0;spacingLeft=0;spacingRight=0;verticalAlign=middle;html=1;labelBackgroundColor=#ffffff;rounded=0;align=center;overflow=width;exitX=0.5;exitY=1;exitDx=0;exitDy=0;exitPerimeter=0;entryX=0.504950495049505;entryY=0;entryDx=0;entryDy=0;entryPerimeter=0;strokeWidth=2;" edge="1" parent="1" source="Hd_F8_P-idC4PMliCgXe-66" target="Hd_F8_P-idC4PMliCgXe-24">
            <mxGeometry relative="1" as="geometry">
              <mxPoint x="-86" y="-33" as="offset" />
              <Array as="points">
                <mxPoint x="267" y="751" />
                <mxPoint x="470.95" y="751" />
              </Array>
            </mxGeometry>
          </mxCell>
        </UserObject>
        <UserObject label="&lt;div style=&quot;font-size: 1px&quot;&gt;&lt;font style=&quot;font-size:11.29px;font-family:Calibri;color:#345593;direction:ltr;letter-spacing:0px;line-height:120%;opacity:1&quot;&gt;No&lt;br/&gt;&lt;/font&gt;&lt;/div&gt;" tags="Connector" id="Hd_F8_P-idC4PMliCgXe-112">
          <mxCell style="vsdxID=514;edgeStyle=none;startArrow=none;endArrow=block;startSize=5;endSize=5;strokeColor=#4672c4;spacingTop=0;spacingBottom=0;spacingLeft=0;spacingRight=0;verticalAlign=middle;html=1;labelBackgroundColor=#ffffff;rounded=0;align=center;overflow=width;exitX=0;exitY=0.5;exitDx=0;exitDy=0;exitPerimeter=0;entryX=0.24752475247524752;entryY=0;entryDx=0;entryDy=0;entryPerimeter=0;strokeWidth=2;" edge="1" parent="1" source="Hd_F8_P-idC4PMliCgXe-66" target="Hd_F8_P-idC4PMliCgXe-69">
            <mxGeometry relative="1" as="geometry">
              <mxPoint x="-9" y="-23" as="offset" />
              <Array as="points">
                <mxPoint x="188.07" y="663" />
              </Array>
            </mxGeometry>
          </mxCell>
        </UserObject>
        <UserObject label="" tags="Connector" id="Hd_F8_P-idC4PMliCgXe-113">
          <mxCell style="vsdxID=427;edgeStyle=none;startArrow=none;endArrow=block;startSize=5;endSize=5;strokeColor=#4672c4;spacingTop=0;spacingBottom=0;spacingLeft=0;spacingRight=0;verticalAlign=middle;html=1;labelBackgroundColor=#ffffff;rounded=0;exitX=0.504950495049505;exitY=1.013157894736842;exitDx=0;exitDy=0;exitPerimeter=0;entryX=0.5027027027027027;entryY=0;entryDx=0;entryDy=0;entryPerimeter=0;strokeWidth=2;" edge="1" parent="1" source="Hd_F8_P-idC4PMliCgXe-20" target="Hd_F8_P-idC4PMliCgXe-13">
            <mxGeometry relative="1" as="geometry">
              <mxPoint x="-1" as="offset" />
              <Array as="points">
                <mxPoint x="645" y="592.02" />
                <mxPoint x="471.5" y="592.02" />
              </Array>
            </mxGeometry>
          </mxCell>
        </UserObject>
        <UserObject label="" tags="Connector" id="Hd_F8_P-idC4PMliCgXe-114">
          <mxCell style="vsdxID=424;edgeStyle=none;startArrow=none;endArrow=block;startSize=5;endSize=5;strokeColor=#4672c4;spacingTop=0;spacingBottom=0;spacingLeft=0;spacingRight=0;verticalAlign=middle;html=1;labelBackgroundColor=#ffffff;rounded=0;exitX=0.504950495049505;exitY=1;exitDx=0;exitDy=0;exitPerimeter=0;entryX=0.5;entryY=0;entryDx=0;entryDy=0;entryPerimeter=0;strokeWidth=2;" edge="1" parent="1" source="Hd_F8_P-idC4PMliCgXe-16" target="Hd_F8_P-idC4PMliCgXe-10">
            <mxGeometry relative="1" as="geometry">
              <mxPoint x="-1" as="offset" />
              <Array as="points">
                <mxPoint x="645" y="447.3" />
                <mxPoint x="471.52" y="447.3" />
              </Array>
            </mxGeometry>
          </mxCell>
        </UserObject>
        <UserObject label="" tags="Connector" id="Hd_F8_P-idC4PMliCgXe-115">
          <mxCell style="vsdxID=416;edgeStyle=none;startArrow=none;endArrow=block;startSize=5;endSize=5;strokeColor=#4672c4;spacingTop=0;spacingBottom=0;spacingLeft=0;spacingRight=0;verticalAlign=middle;html=1;labelBackgroundColor=#ffffff;rounded=0;exitX=0.47368421052631576;exitY=1;exitDx=0;exitDy=0;exitPerimeter=0;entryX=0.5;entryY=0;entryDx=0;entryDy=0;entryPerimeter=0;strokeWidth=2;" edge="1" parent="1" source="Hd_F8_P-idC4PMliCgXe-64" target="Hd_F8_P-idC4PMliCgXe-4">
            <mxGeometry relative="1" as="geometry">
              <mxPoint as="offset" />
              <Array as="points">
                <mxPoint x="643" y="319.76" />
                <mxPoint x="471.63" y="319.76" />
              </Array>
            </mxGeometry>
          </mxCell>
        </UserObject>
        <mxCell id="Hd_F8_P-idC4PMliCgXe-117" value="" style="endArrow=oval;dashed=1;html=1;dashPattern=2.00 2.00;strokeWidth=2;rounded=0;labelBackgroundColor=#ffffff;strokeColor=#c00000;startArrow=none;startSize=5;endSize=5;spacingTop=0;spacingBottom=0;spacingLeft=0;spacingRight=0;" edge="1" parent="1">
          <mxGeometry width="50" height="50" relative="1" as="geometry">
            <mxPoint x="303.3" y="190" as="sourcePoint" />
            <mxPoint x="333.3" y="230" as="targetPoint" />
          </mxGeometry>
        </mxCell>
        <mxCell id="Hd_F8_P-idC4PMliCgXe-120" value="Indirect dependency" style="edgeLabel;html=1;align=center;verticalAlign=middle;resizable=0;points=[];" vertex="1" connectable="0" parent="Hd_F8_P-idC4PMliCgXe-117">
          <mxGeometry x="0.272" y="-3" relative="1" as="geometry">
            <mxPoint x="-2" y="-4" as="offset" />
          </mxGeometry>
        </mxCell>
        <UserObject label="&lt;div style=&quot;font-size: 1px&quot;&gt;&lt;font style=&quot;font-size:11.29px;font-family:Calibri;color:#345593;direction:ltr;letter-spacing:0px;line-height:120%;opacity:1&quot;&gt;No&lt;br/&gt;&lt;/font&gt;&lt;/div&gt;" tags="Connector" id="Hd_F8_P-idC4PMliCgXe-118">
          <mxCell style="vsdxID=417;edgeStyle=none;startArrow=none;endArrow=block;startSize=5;endSize=5;strokeColor=#4672c4;spacingTop=0;spacingBottom=0;spacingLeft=0;spacingRight=0;verticalAlign=middle;html=1;labelBackgroundColor=#ffffff;rounded=0;align=center;overflow=width;strokeWidth=2;" edge="1" parent="1">
            <mxGeometry relative="1" as="geometry">
              <mxPoint x="13" y="-9" as="offset" />
              <Array as="points" />
              <mxPoint x="303.5" y="140" as="sourcePoint" />
              <mxPoint x="343.5" y="184" as="targetPoint" />
            </mxGeometry>
          </mxCell>
        </UserObject>
        <mxCell id="Hd_F8_P-idC4PMliCgXe-119" value="Standard flow" style="edgeLabel;html=1;align=center;verticalAlign=middle;resizable=0;points=[];" vertex="1" connectable="0" parent="Hd_F8_P-idC4PMliCgXe-118">
          <mxGeometry x="-0.3846" y="2" relative="1" as="geometry">
            <mxPoint as="offset" />
          </mxGeometry>
        </mxCell>
      </root>
    </mxGraphModel>
  </diagram>
</mxfile>
